M48
METRIC,LZ,000.000
;FILE_FORMAT=3:3
;TYPE=PLATED
;Layer: PTH_Through
;EasyEDA v6.5.20, 2023-09-02 21:33:51
;a67cddfb3fce44daa9051d46cbbcc19f,10
;Gerber Generator version 0.2
;Holesize 1 = 0.900 mm
T01C0.900
;Holesize 2 = 1.100 mm
T02C1.100
%
G05
G90
T01
X020320Y082550
X020320Y069850
X025400Y082550
X025400Y069850
T02
X008730Y038809
X011270Y038809
X008730Y036269
X011270Y036269
X008730Y033729
X011270Y033729
X008730Y031189
X011270Y031189
X018730Y038809
X021270Y038809
X018730Y036269
X021270Y036269
X018730Y033729
X021270Y033729
X018730Y031189
X021270Y031189
X028730Y038809
X031270Y038809
X028730Y036269
X031270Y036269
X028730Y033729
X031270Y033729
X028730Y031189
X031270Y031189
X038730Y038809
X041270Y038809
X038730Y036269
X041270Y036269
X038730Y033729
X041270Y033729
X038730Y031189
X041270Y031189
X058730Y038809
X061270Y038809
X058730Y036269
X061270Y036269
X058730Y033729
X061270Y033729
X058730Y031189
X061270Y031189
X068730Y038809
X071270Y038809
X068730Y036269
X071270Y036269
X068730Y033729
X071270Y033729
X068730Y031189
X071270Y031189
X078730Y038809
X081270Y038809
X078730Y036269
X081270Y036269
X078730Y033729
X081270Y033729
X078730Y031189
X081270Y031189
X088730Y038809
X091270Y038809
X088730Y036269
X091270Y036269
X088730Y033729
X091270Y033729
X088730Y031189
X091270Y031189
M30
