G04 Layer: BottomSolderMaskLayer*
G04 EasyEDA v6.5.20, 2023-09-02 21:33:51*
G04 a67cddfb3fce44daa9051d46cbbcc19f,10*
G04 Gerber Generator version 0.2*
G04 Scale: 100 percent, Rotated: No, Reflected: No *
G04 Dimensions in millimeters *
G04 leading zeros omitted , absolute positions ,4 integer and 5 decimal *
%FSLAX45Y45*%
%MOMM*%

%ADD10C,1.6256*%
%ADD11C,1.9812*%

%LPD*%
D10*
G01*
X872997Y3880865D03*
G01*
X1126997Y3880865D03*
G01*
X872997Y3626865D03*
G01*
X1126997Y3626865D03*
G01*
X872997Y3372865D03*
G01*
X1126997Y3372865D03*
G01*
X872997Y3118865D03*
G01*
X1126997Y3118865D03*
G01*
X1872995Y3880865D03*
G01*
X2126995Y3880865D03*
G01*
X1872995Y3626865D03*
G01*
X2126995Y3626865D03*
G01*
X1872995Y3372865D03*
G01*
X2126995Y3372865D03*
G01*
X1872995Y3118865D03*
G01*
X2126995Y3118865D03*
G01*
X2872993Y3880865D03*
G01*
X3126993Y3880865D03*
G01*
X2872993Y3626865D03*
G01*
X3126993Y3626865D03*
G01*
X2872993Y3372865D03*
G01*
X3126993Y3372865D03*
G01*
X2872993Y3118865D03*
G01*
X3126993Y3118865D03*
G01*
X3872991Y3880865D03*
G01*
X4126991Y3880865D03*
G01*
X3872991Y3626865D03*
G01*
X4126991Y3626865D03*
G01*
X3872991Y3372865D03*
G01*
X4126991Y3372865D03*
G01*
X3872991Y3118865D03*
G01*
X4126991Y3118865D03*
G01*
X5872988Y3880865D03*
G01*
X6126988Y3880865D03*
G01*
X5872988Y3626865D03*
G01*
X6126988Y3626865D03*
G01*
X5872988Y3372865D03*
G01*
X6126988Y3372865D03*
G01*
X5872988Y3118865D03*
G01*
X6126988Y3118865D03*
G01*
X6872986Y3880865D03*
G01*
X7126986Y3880865D03*
G01*
X6872986Y3626865D03*
G01*
X7126986Y3626865D03*
G01*
X6872986Y3372865D03*
G01*
X7126986Y3372865D03*
G01*
X6872986Y3118865D03*
G01*
X7126986Y3118865D03*
G01*
X7872984Y3880865D03*
G01*
X8126984Y3880865D03*
G01*
X7872984Y3626865D03*
G01*
X8126984Y3626865D03*
G01*
X7872984Y3372865D03*
G01*
X8126984Y3372865D03*
G01*
X7872984Y3118865D03*
G01*
X8126984Y3118865D03*
G01*
X8872981Y3880865D03*
G01*
X9126981Y3880865D03*
G01*
X8872981Y3626865D03*
G01*
X9126981Y3626865D03*
G01*
X8872981Y3372865D03*
G01*
X9126981Y3372865D03*
G01*
X8872981Y3118865D03*
G01*
X9126981Y3118865D03*
D11*
G01*
X2032000Y8255000D03*
G01*
X2032000Y6985000D03*
G01*
X2540000Y8255000D03*
G01*
X2540000Y6985000D03*
M02*
