G04 Layer: BottomLayer*
G04 EasyEDA v6.5.20, 2023-09-02 21:33:51*
G04 a67cddfb3fce44daa9051d46cbbcc19f,10*
G04 Gerber Generator version 0.2*
G04 Scale: 100 percent, Rotated: No, Reflected: No *
G04 Dimensions in millimeters *
G04 leading zeros omitted , absolute positions ,4 integer and 5 decimal *
%FSLAX45Y45*%
%MOMM*%

%ADD10C,1.0000*%
%ADD11C,0.5000*%
%ADD12C,1.5240*%
%ADD13C,1.8796*%
%ADD14C,0.6096*%
%ADD15C,0.6100*%
%ADD16C,0.0170*%

%LPD*%
G36*
X731012Y25908D02*
G01*
X727202Y26670D01*
X723900Y28803D01*
X721715Y32004D01*
X720852Y35864D01*
X721512Y39674D01*
X723595Y43027D01*
X726744Y45313D01*
X730402Y46939D01*
X757834Y61722D01*
X784301Y78130D01*
X809701Y96164D01*
X833932Y115722D01*
X856945Y136702D01*
X878586Y159105D01*
X898804Y182778D01*
X917549Y207670D01*
X934719Y233629D01*
X950264Y260654D01*
X964082Y288544D01*
X976172Y317246D01*
X986485Y346659D01*
X994968Y376631D01*
X1001572Y407060D01*
X1006297Y437845D01*
X1009091Y468884D01*
X1010005Y499973D01*
X1009091Y531114D01*
X1006297Y562152D01*
X1001572Y592937D01*
X994968Y623366D01*
X986485Y653338D01*
X976172Y682752D01*
X964082Y711454D01*
X950264Y739343D01*
X934719Y766368D01*
X917549Y792327D01*
X898804Y817219D01*
X878586Y840892D01*
X856945Y863295D01*
X833932Y884275D01*
X809701Y903833D01*
X784301Y921867D01*
X757834Y938276D01*
X730402Y953058D01*
X702106Y966063D01*
X673049Y977341D01*
X643382Y986790D01*
X613156Y994410D01*
X582574Y1000150D01*
X551637Y1003960D01*
X520547Y1005890D01*
X489407Y1005890D01*
X458317Y1003960D01*
X427431Y1000150D01*
X396798Y994410D01*
X366623Y986790D01*
X336905Y977341D01*
X307898Y966063D01*
X279603Y953058D01*
X252171Y938276D01*
X225704Y921867D01*
X200304Y903833D01*
X176022Y884275D01*
X153060Y863295D01*
X131368Y840892D01*
X111150Y817219D01*
X92405Y792327D01*
X75234Y766368D01*
X59740Y739343D01*
X45872Y711454D01*
X43230Y707136D01*
X39928Y704951D01*
X36017Y704189D01*
X32156Y704951D01*
X28854Y707186D01*
X26670Y710438D01*
X25908Y714349D01*
X25908Y9285630D01*
X26670Y9289542D01*
X28854Y9292793D01*
X32156Y9295028D01*
X36017Y9295790D01*
X39928Y9295028D01*
X43230Y9292844D01*
X45872Y9288526D01*
X59740Y9260636D01*
X75234Y9233611D01*
X92405Y9207652D01*
X111150Y9182760D01*
X131368Y9159087D01*
X153060Y9136684D01*
X176022Y9115704D01*
X200304Y9096146D01*
X225704Y9078112D01*
X252171Y9061704D01*
X279603Y9046921D01*
X307898Y9033916D01*
X336905Y9022638D01*
X366623Y9013190D01*
X396798Y9005570D01*
X427431Y8999829D01*
X458317Y8996019D01*
X489407Y8994089D01*
X520547Y8994089D01*
X551637Y8996019D01*
X582574Y8999829D01*
X613156Y9005570D01*
X643382Y9013190D01*
X673049Y9022638D01*
X702106Y9033916D01*
X730402Y9046921D01*
X757834Y9061704D01*
X784301Y9078112D01*
X809701Y9096146D01*
X833932Y9115704D01*
X856945Y9136684D01*
X878586Y9159087D01*
X898804Y9182760D01*
X917549Y9207652D01*
X934719Y9233611D01*
X950264Y9260636D01*
X964082Y9288526D01*
X976172Y9317228D01*
X986485Y9346641D01*
X994968Y9376613D01*
X1001572Y9407042D01*
X1006297Y9437827D01*
X1009091Y9468866D01*
X1010005Y9499955D01*
X1009091Y9531096D01*
X1006297Y9562134D01*
X1001572Y9592919D01*
X994968Y9623348D01*
X986485Y9653320D01*
X976172Y9682734D01*
X964082Y9711436D01*
X950264Y9739325D01*
X934719Y9766350D01*
X917549Y9792309D01*
X898804Y9817201D01*
X878586Y9840874D01*
X856945Y9863277D01*
X833932Y9884257D01*
X809701Y9903815D01*
X784301Y9921849D01*
X757834Y9938258D01*
X730402Y9953040D01*
X726744Y9954717D01*
X723544Y9957003D01*
X721512Y9960305D01*
X720852Y9964166D01*
X721664Y9967976D01*
X723900Y9971176D01*
X727151Y9973360D01*
X731012Y9974072D01*
X9278975Y9974072D01*
X9282836Y9973360D01*
X9286087Y9971176D01*
X9288272Y9967976D01*
X9289135Y9964166D01*
X9288475Y9960305D01*
X9286392Y9957003D01*
X9283242Y9954717D01*
X9279585Y9953040D01*
X9252153Y9938258D01*
X9225686Y9921849D01*
X9200286Y9903815D01*
X9176004Y9884257D01*
X9153042Y9863277D01*
X9131350Y9840874D01*
X9111132Y9817201D01*
X9092387Y9792309D01*
X9075216Y9766350D01*
X9059722Y9739325D01*
X9045854Y9711436D01*
X9033764Y9682734D01*
X9023451Y9653320D01*
X9015018Y9623348D01*
X9008414Y9592919D01*
X9003690Y9562134D01*
X9000845Y9531096D01*
X8999982Y9500006D01*
X9000845Y9468866D01*
X9003690Y9437827D01*
X9008414Y9407042D01*
X9015018Y9376613D01*
X9023451Y9346641D01*
X9033764Y9317228D01*
X9045854Y9288526D01*
X9059722Y9260636D01*
X9075216Y9233611D01*
X9092387Y9207652D01*
X9111132Y9182760D01*
X9131350Y9159087D01*
X9153042Y9136684D01*
X9176004Y9115704D01*
X9200286Y9096146D01*
X9225686Y9078112D01*
X9252153Y9061704D01*
X9279585Y9046921D01*
X9307880Y9033916D01*
X9336887Y9022638D01*
X9366605Y9013190D01*
X9396780Y9005570D01*
X9427413Y8999829D01*
X9458299Y8996019D01*
X9489389Y8994089D01*
X9520529Y8994089D01*
X9551619Y8996019D01*
X9582556Y8999829D01*
X9613138Y9005570D01*
X9643364Y9013190D01*
X9673031Y9022638D01*
X9702088Y9033916D01*
X9730384Y9046921D01*
X9757816Y9061704D01*
X9784283Y9078112D01*
X9809683Y9096146D01*
X9833914Y9115704D01*
X9856927Y9136684D01*
X9878568Y9159087D01*
X9898786Y9182760D01*
X9917531Y9207652D01*
X9934702Y9233611D01*
X9950246Y9260636D01*
X9954818Y9269882D01*
X9957663Y9273336D01*
X9961727Y9275267D01*
X9966248Y9275216D01*
X9970312Y9273286D01*
X9973106Y9269730D01*
X9974072Y9265361D01*
X9974072Y734618D01*
X9973106Y730250D01*
X9970312Y726744D01*
X9966248Y724763D01*
X9961727Y724712D01*
X9957663Y726643D01*
X9954818Y730148D01*
X9950246Y739343D01*
X9934702Y766368D01*
X9917531Y792327D01*
X9898786Y817219D01*
X9878568Y840892D01*
X9856927Y863295D01*
X9833914Y884275D01*
X9809683Y903833D01*
X9784283Y921867D01*
X9757816Y938276D01*
X9730384Y953058D01*
X9702088Y966063D01*
X9673031Y977341D01*
X9643364Y986790D01*
X9613138Y994410D01*
X9582556Y1000150D01*
X9551619Y1003960D01*
X9520529Y1005890D01*
X9489389Y1005890D01*
X9458299Y1003960D01*
X9427413Y1000150D01*
X9396780Y994410D01*
X9366605Y986790D01*
X9336887Y977341D01*
X9307880Y966063D01*
X9279585Y953058D01*
X9252153Y938276D01*
X9225686Y921867D01*
X9200286Y903833D01*
X9176004Y884275D01*
X9153042Y863295D01*
X9131350Y840892D01*
X9111132Y817219D01*
X9092387Y792327D01*
X9075216Y766368D01*
X9059722Y739343D01*
X9045854Y711454D01*
X9033764Y682752D01*
X9023451Y653338D01*
X9015018Y623366D01*
X9008414Y592937D01*
X9003690Y562152D01*
X9000845Y531114D01*
X8999982Y500024D01*
X9000845Y468884D01*
X9003690Y437845D01*
X9008414Y407060D01*
X9015018Y376631D01*
X9023451Y346659D01*
X9033764Y317246D01*
X9045854Y288544D01*
X9059722Y260654D01*
X9075216Y233629D01*
X9092387Y207670D01*
X9111132Y182778D01*
X9131350Y159105D01*
X9153042Y136702D01*
X9176004Y115722D01*
X9200286Y96164D01*
X9225686Y78130D01*
X9252153Y61722D01*
X9279585Y46939D01*
X9283192Y45313D01*
X9286392Y43027D01*
X9288424Y39674D01*
X9289084Y35864D01*
X9288272Y32004D01*
X9286036Y28803D01*
X9282785Y26670D01*
X9278924Y25908D01*
G37*

%LPC*%
G36*
X8035188Y3163316D02*
G01*
X8082534Y3163316D01*
X8082534Y3210661D01*
X8080959Y3210001D01*
X8069224Y3203041D01*
X8058505Y3194558D01*
X8049006Y3184753D01*
X8040928Y3173780D01*
G37*
G36*
X2540000Y8135112D02*
G01*
X2554732Y8136026D01*
X2569260Y8138769D01*
X2583281Y8143240D01*
X2596692Y8149386D01*
X2609240Y8157159D01*
X2620772Y8166404D01*
X2631033Y8177022D01*
X2639923Y8188807D01*
X2647289Y8201558D01*
X2653030Y8215172D01*
X2657094Y8229346D01*
X2659380Y8243925D01*
X2659786Y8258708D01*
X2658465Y8273389D01*
X2655316Y8287816D01*
X2650388Y8301736D01*
X2643784Y8314944D01*
X2635656Y8327237D01*
X2626055Y8338464D01*
X2615133Y8348370D01*
X2603093Y8356904D01*
X2590088Y8363915D01*
X2576322Y8369249D01*
X2562047Y8372805D01*
X2547366Y8374634D01*
X2532634Y8374634D01*
X2517952Y8372805D01*
X2503678Y8369249D01*
X2489911Y8363915D01*
X2476906Y8356904D01*
X2464866Y8348370D01*
X2453944Y8338464D01*
X2444343Y8327237D01*
X2436215Y8314944D01*
X2429611Y8301736D01*
X2424684Y8287816D01*
X2421534Y8273389D01*
X2420213Y8258708D01*
X2420620Y8243925D01*
X2422906Y8229346D01*
X2426970Y8215172D01*
X2432710Y8201558D01*
X2440076Y8188807D01*
X2448966Y8177022D01*
X2459228Y8166404D01*
X2470759Y8157159D01*
X2483307Y8149386D01*
X2496718Y8143240D01*
X2510739Y8138769D01*
X2525268Y8136026D01*
G37*
G36*
X7082536Y3027222D02*
G01*
X7082536Y3074416D01*
X7035342Y3074416D01*
X7037476Y3069793D01*
X7044791Y3058312D01*
X7053580Y3047898D01*
X7063740Y3038754D01*
X7074966Y3031032D01*
G37*
G36*
X6828536Y3027222D02*
G01*
X6828536Y3074416D01*
X6781342Y3074416D01*
X6783476Y3069793D01*
X6790791Y3058312D01*
X6799580Y3047898D01*
X6809740Y3038754D01*
X6820966Y3031032D01*
G37*
G36*
X4171442Y3027222D02*
G01*
X4179011Y3031032D01*
X4190237Y3038754D01*
X4200398Y3047898D01*
X4209186Y3058312D01*
X4216501Y3069793D01*
X4218635Y3074416D01*
X4171442Y3074416D01*
G37*
G36*
X3917442Y3027222D02*
G01*
X3925011Y3031032D01*
X3936237Y3038754D01*
X3946398Y3047898D01*
X3955186Y3058312D01*
X3962501Y3069793D01*
X3964635Y3074416D01*
X3917442Y3074416D01*
G37*
G36*
X6917436Y3027222D02*
G01*
X6925005Y3031032D01*
X6936231Y3038754D01*
X6946392Y3047898D01*
X6955180Y3058312D01*
X6962495Y3069793D01*
X6964629Y3074416D01*
X6917436Y3074416D01*
G37*
G36*
X2082546Y3027222D02*
G01*
X2082546Y3074416D01*
X2035352Y3074416D01*
X2037486Y3069793D01*
X2044801Y3058312D01*
X2053589Y3047898D01*
X2063750Y3038754D01*
X2074976Y3031032D01*
G37*
G36*
X3828542Y3027222D02*
G01*
X3828542Y3074416D01*
X3781348Y3074416D01*
X3783482Y3069793D01*
X3790797Y3058312D01*
X3799586Y3047898D01*
X3809746Y3038754D01*
X3820972Y3031032D01*
G37*
G36*
X8828532Y3027222D02*
G01*
X8828532Y3074416D01*
X8781338Y3074416D01*
X8783472Y3069793D01*
X8790787Y3058312D01*
X8799576Y3047898D01*
X8809736Y3038754D01*
X8820962Y3031032D01*
G37*
G36*
X7171436Y3027222D02*
G01*
X7179005Y3031032D01*
X7190231Y3038754D01*
X7200392Y3047898D01*
X7209180Y3058312D01*
X7216495Y3069793D01*
X7218629Y3074416D01*
X7171436Y3074416D01*
G37*
G36*
X9171432Y3027222D02*
G01*
X9179001Y3031032D01*
X9190228Y3038754D01*
X9200388Y3047898D01*
X9209176Y3058312D01*
X9216491Y3069793D01*
X9218625Y3074416D01*
X9171432Y3074416D01*
G37*
G36*
X4082542Y3027222D02*
G01*
X4082542Y3074416D01*
X4035348Y3074416D01*
X4037482Y3069793D01*
X4044797Y3058312D01*
X4053586Y3047898D01*
X4063746Y3038754D01*
X4074972Y3031032D01*
G37*
G36*
X8917432Y3027222D02*
G01*
X8925001Y3031032D01*
X8936228Y3038754D01*
X8946388Y3047898D01*
X8955176Y3058312D01*
X8962491Y3069793D01*
X8964625Y3074416D01*
X8917432Y3074416D01*
G37*
G36*
X2171446Y3027222D02*
G01*
X2179015Y3031032D01*
X2190242Y3038754D01*
X2200402Y3047898D01*
X2209190Y3058312D01*
X2216505Y3069793D01*
X2218639Y3074416D01*
X2171446Y3074416D01*
G37*
G36*
X9082532Y3027222D02*
G01*
X9082532Y3074416D01*
X9035338Y3074416D01*
X9037472Y3069793D01*
X9044787Y3058312D01*
X9053576Y3047898D01*
X9063736Y3038754D01*
X9074962Y3031032D01*
G37*
G36*
X1082548Y3027222D02*
G01*
X1082548Y3074416D01*
X1035354Y3074416D01*
X1037488Y3069793D01*
X1044803Y3058312D01*
X1053592Y3047898D01*
X1063752Y3038754D01*
X1074978Y3031032D01*
G37*
G36*
X828548Y3027222D02*
G01*
X828548Y3074416D01*
X781354Y3074416D01*
X783488Y3069793D01*
X790803Y3058312D01*
X799592Y3047898D01*
X809752Y3038754D01*
X820978Y3031032D01*
G37*
G36*
X1171448Y3027222D02*
G01*
X1179017Y3031032D01*
X1190244Y3038754D01*
X1200404Y3047898D01*
X1209192Y3058312D01*
X1216507Y3069793D01*
X1218641Y3074416D01*
X1171448Y3074416D01*
G37*
G36*
X1828546Y3027222D02*
G01*
X1828546Y3074416D01*
X1781352Y3074416D01*
X1783486Y3069793D01*
X1790801Y3058312D01*
X1799589Y3047898D01*
X1809750Y3038754D01*
X1820976Y3031032D01*
G37*
G36*
X917448Y3027222D02*
G01*
X925017Y3031032D01*
X936244Y3038754D01*
X946403Y3047898D01*
X955192Y3058312D01*
X962507Y3069793D01*
X964641Y3074416D01*
X917448Y3074416D01*
G37*
G36*
X1917446Y3027222D02*
G01*
X1925015Y3031032D01*
X1936242Y3038754D01*
X1946402Y3047898D01*
X1955190Y3058312D01*
X1962505Y3069793D01*
X1964639Y3074416D01*
X1917446Y3074416D01*
G37*
G36*
X5917438Y3027222D02*
G01*
X5925007Y3031032D01*
X5936234Y3038754D01*
X5946394Y3047898D01*
X5955182Y3058312D01*
X5962497Y3069793D01*
X5964631Y3074416D01*
X5917438Y3074416D01*
G37*
G36*
X2917444Y3027222D02*
G01*
X2925013Y3031032D01*
X2936240Y3038754D01*
X2946400Y3047898D01*
X2955188Y3058312D01*
X2962503Y3069793D01*
X2964637Y3074416D01*
X2917444Y3074416D01*
G37*
G36*
X5828538Y3027222D02*
G01*
X5828538Y3074416D01*
X5781344Y3074416D01*
X5783478Y3069793D01*
X5790793Y3058312D01*
X5799582Y3047898D01*
X5809742Y3038754D01*
X5820968Y3031032D01*
G37*
G36*
X7828534Y3027222D02*
G01*
X7828534Y3074416D01*
X7781340Y3074416D01*
X7783474Y3069793D01*
X7790789Y3058312D01*
X7799578Y3047898D01*
X7809738Y3038754D01*
X7820964Y3031032D01*
G37*
G36*
X3171444Y3027222D02*
G01*
X3179013Y3031032D01*
X3190240Y3038754D01*
X3200400Y3047898D01*
X3209188Y3058312D01*
X3216503Y3069793D01*
X3218637Y3074416D01*
X3171444Y3074416D01*
G37*
G36*
X2828544Y3027222D02*
G01*
X2828544Y3074416D01*
X2781350Y3074416D01*
X2783484Y3069793D01*
X2790799Y3058312D01*
X2799588Y3047898D01*
X2809748Y3038754D01*
X2820974Y3031032D01*
G37*
G36*
X6082538Y3027222D02*
G01*
X6082538Y3074416D01*
X6035344Y3074416D01*
X6037478Y3069793D01*
X6044793Y3058312D01*
X6053582Y3047898D01*
X6063742Y3038754D01*
X6074968Y3031032D01*
G37*
G36*
X8171434Y3027222D02*
G01*
X8179003Y3031032D01*
X8190230Y3038754D01*
X8200390Y3047898D01*
X8209178Y3058312D01*
X8216493Y3069793D01*
X8218627Y3074416D01*
X8171434Y3074416D01*
G37*
G36*
X3082544Y3027222D02*
G01*
X3082544Y3074416D01*
X3035350Y3074416D01*
X3037484Y3069793D01*
X3044799Y3058312D01*
X3053588Y3047898D01*
X3063748Y3038754D01*
X3074974Y3031032D01*
G37*
G36*
X8082534Y3027222D02*
G01*
X8082534Y3074416D01*
X8035340Y3074416D01*
X8037474Y3069793D01*
X8044789Y3058312D01*
X8053578Y3047898D01*
X8063738Y3038754D01*
X8074964Y3031032D01*
G37*
G36*
X6171438Y3027222D02*
G01*
X6179007Y3031032D01*
X6190234Y3038754D01*
X6200394Y3047898D01*
X6209182Y3058312D01*
X6216497Y3069793D01*
X6218631Y3074416D01*
X6171438Y3074416D01*
G37*
G36*
X7917434Y3027222D02*
G01*
X7925003Y3031032D01*
X7936230Y3038754D01*
X7946390Y3047898D01*
X7955178Y3058312D01*
X7962493Y3069793D01*
X7964627Y3074416D01*
X7917434Y3074416D01*
G37*
G36*
X3917442Y3163316D02*
G01*
X3964787Y3163316D01*
X3959047Y3173780D01*
X3950970Y3184753D01*
X3941470Y3194558D01*
X3930751Y3203041D01*
X3919016Y3210001D01*
X3917442Y3210661D01*
G37*
G36*
X3781196Y3163316D02*
G01*
X3828542Y3163316D01*
X3828542Y3210661D01*
X3826967Y3210001D01*
X3815232Y3203041D01*
X3804513Y3194558D01*
X3795014Y3184753D01*
X3786936Y3173780D01*
G37*
G36*
X6781190Y3163316D02*
G01*
X6828536Y3163316D01*
X6828536Y3210661D01*
X6826961Y3210001D01*
X6815226Y3203041D01*
X6804507Y3194558D01*
X6795008Y3184753D01*
X6786930Y3173780D01*
G37*
G36*
X4035196Y3163316D02*
G01*
X4082542Y3163316D01*
X4082542Y3210661D01*
X4080967Y3210001D01*
X4069232Y3203041D01*
X4058513Y3194558D01*
X4049014Y3184753D01*
X4040936Y3173780D01*
G37*
G36*
X4171442Y3163316D02*
G01*
X4218787Y3163316D01*
X4213047Y3173780D01*
X4204970Y3184753D01*
X4195470Y3194558D01*
X4184751Y3203041D01*
X4173016Y3210001D01*
X4171442Y3210661D01*
G37*
G36*
X7171436Y3163316D02*
G01*
X7218781Y3163316D01*
X7213041Y3173780D01*
X7204964Y3184753D01*
X7195464Y3194558D01*
X7184745Y3203041D01*
X7173010Y3210001D01*
X7171436Y3210661D01*
G37*
G36*
X6917436Y3163316D02*
G01*
X6964781Y3163316D01*
X6959041Y3173780D01*
X6950964Y3184753D01*
X6941464Y3194558D01*
X6930745Y3203041D01*
X6919010Y3210001D01*
X6917436Y3210661D01*
G37*
G36*
X8781186Y3163316D02*
G01*
X8828532Y3163316D01*
X8828532Y3210661D01*
X8826957Y3210001D01*
X8815222Y3203041D01*
X8804503Y3194558D01*
X8795004Y3184753D01*
X8786926Y3173780D01*
G37*
G36*
X2171446Y3163316D02*
G01*
X2218791Y3163316D01*
X2213051Y3173780D01*
X2204974Y3184753D01*
X2195474Y3194558D01*
X2184755Y3203041D01*
X2173020Y3210001D01*
X2171446Y3210661D01*
G37*
G36*
X9035186Y3163316D02*
G01*
X9082532Y3163316D01*
X9082532Y3210661D01*
X9080957Y3210001D01*
X9069222Y3203041D01*
X9058503Y3194558D01*
X9049004Y3184753D01*
X9040926Y3173780D01*
G37*
G36*
X7035190Y3163316D02*
G01*
X7082536Y3163316D01*
X7082536Y3210661D01*
X7080961Y3210001D01*
X7069226Y3203041D01*
X7058507Y3194558D01*
X7049008Y3184753D01*
X7040930Y3173780D01*
G37*
G36*
X8917432Y3163316D02*
G01*
X8964777Y3163316D01*
X8959037Y3173780D01*
X8950960Y3184753D01*
X8941460Y3194558D01*
X8930741Y3203041D01*
X8919006Y3210001D01*
X8917432Y3210661D01*
G37*
G36*
X2035200Y3163316D02*
G01*
X2082546Y3163316D01*
X2082546Y3210661D01*
X2080971Y3210001D01*
X2069236Y3203041D01*
X2058517Y3194558D01*
X2049018Y3184753D01*
X2040940Y3173780D01*
G37*
G36*
X9171432Y3163316D02*
G01*
X9218777Y3163316D01*
X9213037Y3173780D01*
X9204960Y3184753D01*
X9195460Y3194558D01*
X9184741Y3203041D01*
X9173006Y3210001D01*
X9171432Y3210661D01*
G37*
G36*
X1171448Y3163316D02*
G01*
X1218793Y3163316D01*
X1213053Y3173780D01*
X1204976Y3184753D01*
X1195476Y3194558D01*
X1184757Y3203041D01*
X1173022Y3210001D01*
X1171448Y3210661D01*
G37*
G36*
X781202Y3163316D02*
G01*
X828548Y3163316D01*
X828548Y3210661D01*
X826973Y3210001D01*
X815238Y3203041D01*
X804519Y3194558D01*
X795020Y3184753D01*
X786942Y3173780D01*
G37*
G36*
X1035202Y3163316D02*
G01*
X1082548Y3163316D01*
X1082548Y3210661D01*
X1080973Y3210001D01*
X1069238Y3203041D01*
X1058519Y3194558D01*
X1049020Y3184753D01*
X1040942Y3173780D01*
G37*
G36*
X1781200Y3163316D02*
G01*
X1828546Y3163316D01*
X1828546Y3210661D01*
X1826971Y3210001D01*
X1815236Y3203041D01*
X1804517Y3194558D01*
X1795018Y3184753D01*
X1786940Y3173780D01*
G37*
G36*
X917448Y3163316D02*
G01*
X964793Y3163316D01*
X959053Y3173780D01*
X950976Y3184753D01*
X941476Y3194558D01*
X930757Y3203041D01*
X919022Y3210001D01*
X917448Y3210661D01*
G37*
G36*
X1917446Y3163316D02*
G01*
X1964791Y3163316D01*
X1959051Y3173780D01*
X1950974Y3184753D01*
X1941474Y3194558D01*
X1930755Y3203041D01*
X1919020Y3210001D01*
X1917446Y3210661D01*
G37*
G36*
X3171444Y3163316D02*
G01*
X3218789Y3163316D01*
X3213049Y3173780D01*
X3204972Y3184753D01*
X3195472Y3194558D01*
X3184753Y3203041D01*
X3173018Y3210001D01*
X3171444Y3210661D01*
G37*
G36*
X6171438Y3163316D02*
G01*
X6218783Y3163316D01*
X6213043Y3173780D01*
X6204966Y3184753D01*
X6195466Y3194558D01*
X6184747Y3203041D01*
X6173012Y3210001D01*
X6171438Y3210661D01*
G37*
G36*
X3035198Y3163316D02*
G01*
X3082544Y3163316D01*
X3082544Y3210661D01*
X3080969Y3210001D01*
X3069234Y3203041D01*
X3058515Y3194558D01*
X3049016Y3184753D01*
X3040938Y3173780D01*
G37*
G36*
X2917444Y3163316D02*
G01*
X2964789Y3163316D01*
X2959049Y3173780D01*
X2950972Y3184753D01*
X2941472Y3194558D01*
X2930753Y3203041D01*
X2919018Y3210001D01*
X2917444Y3210661D01*
G37*
G36*
X6035192Y3163316D02*
G01*
X6082538Y3163316D01*
X6082538Y3210661D01*
X6080963Y3210001D01*
X6069228Y3203041D01*
X6058509Y3194558D01*
X6049010Y3184753D01*
X6040932Y3173780D01*
G37*
G36*
X7917434Y3163316D02*
G01*
X7964779Y3163316D01*
X7959039Y3173780D01*
X7950962Y3184753D01*
X7941462Y3194558D01*
X7930743Y3203041D01*
X7919008Y3210001D01*
X7917434Y3210661D01*
G37*
G36*
X5917438Y3163316D02*
G01*
X5964783Y3163316D01*
X5959043Y3173780D01*
X5950966Y3184753D01*
X5941466Y3194558D01*
X5930747Y3203041D01*
X5919012Y3210001D01*
X5917438Y3210661D01*
G37*
G36*
X2032000Y8135112D02*
G01*
X2046732Y8136026D01*
X2061260Y8138769D01*
X2075281Y8143240D01*
X2088692Y8149386D01*
X2101240Y8157159D01*
X2112772Y8166404D01*
X2123033Y8177022D01*
X2131923Y8188807D01*
X2139289Y8201558D01*
X2145030Y8215172D01*
X2149094Y8229346D01*
X2151380Y8243925D01*
X2151786Y8258708D01*
X2150465Y8273389D01*
X2147316Y8287816D01*
X2142388Y8301736D01*
X2135784Y8314944D01*
X2127656Y8327237D01*
X2118055Y8338464D01*
X2107133Y8348370D01*
X2095093Y8356904D01*
X2082088Y8363915D01*
X2068322Y8369249D01*
X2054047Y8372805D01*
X2039366Y8374634D01*
X2024634Y8374634D01*
X2009952Y8372805D01*
X1995678Y8369249D01*
X1981911Y8363915D01*
X1968906Y8356904D01*
X1956866Y8348370D01*
X1945944Y8338464D01*
X1936343Y8327237D01*
X1928215Y8314944D01*
X1921611Y8301736D01*
X1916684Y8287816D01*
X1913534Y8273389D01*
X1912213Y8258708D01*
X1912620Y8243925D01*
X1914906Y8229346D01*
X1918970Y8215172D01*
X1924710Y8201558D01*
X1932076Y8188807D01*
X1940966Y8177022D01*
X1951228Y8166404D01*
X1962759Y8157159D01*
X1975307Y8149386D01*
X1988718Y8143240D01*
X2002739Y8138769D01*
X2017268Y8136026D01*
G37*
G36*
X5781192Y3163316D02*
G01*
X5828538Y3163316D01*
X5828538Y3210661D01*
X5826963Y3210001D01*
X5815228Y3203041D01*
X5804509Y3194558D01*
X5795010Y3184753D01*
X5786932Y3173780D01*
G37*
G36*
X7781188Y3163316D02*
G01*
X7828534Y3163316D01*
X7828534Y3210661D01*
X7826959Y3210001D01*
X7815224Y3203041D01*
X7804505Y3194558D01*
X7795006Y3184753D01*
X7786928Y3173780D01*
G37*
G36*
X2781198Y3163316D02*
G01*
X2828544Y3163316D01*
X2828544Y3210661D01*
X2826969Y3210001D01*
X2815234Y3203041D01*
X2804515Y3194558D01*
X2795016Y3184753D01*
X2786938Y3173780D01*
G37*
G36*
X8171434Y3163316D02*
G01*
X8218779Y3163316D01*
X8213039Y3173780D01*
X8204962Y3184753D01*
X8195462Y3194558D01*
X8184743Y3203041D01*
X8173008Y3210001D01*
X8171434Y3210661D01*
G37*
G36*
X2126996Y3270758D02*
G01*
X2140610Y3271672D01*
X2153970Y3274415D01*
X2166874Y3278886D01*
X2179015Y3285032D01*
X2190242Y3292754D01*
X2200402Y3301898D01*
X2209190Y3312312D01*
X2216505Y3323793D01*
X2222246Y3336188D01*
X2226310Y3349193D01*
X2228545Y3362655D01*
X2229002Y3376269D01*
X2227681Y3389833D01*
X2224481Y3403092D01*
X2219604Y3415842D01*
X2213051Y3427780D01*
X2204974Y3438753D01*
X2195474Y3448558D01*
X2184755Y3457041D01*
X2173020Y3464001D01*
X2160473Y3469284D01*
X2147316Y3472891D01*
X2133803Y3474720D01*
X2120188Y3474720D01*
X2106676Y3472891D01*
X2093518Y3469284D01*
X2080971Y3464001D01*
X2069236Y3457041D01*
X2058517Y3448558D01*
X2049018Y3438753D01*
X2040940Y3427780D01*
X2034387Y3415842D01*
X2029510Y3403092D01*
X2026310Y3389833D01*
X2024989Y3376269D01*
X2025446Y3362655D01*
X2027682Y3349193D01*
X2031746Y3336188D01*
X2037486Y3323793D01*
X2044801Y3312312D01*
X2053589Y3301898D01*
X2063750Y3292754D01*
X2074976Y3285032D01*
X2087118Y3278886D01*
X2100021Y3274415D01*
X2113381Y3271672D01*
G37*
G36*
X3872992Y3270758D02*
G01*
X3886606Y3271672D01*
X3899966Y3274415D01*
X3912870Y3278886D01*
X3925011Y3285032D01*
X3936237Y3292754D01*
X3946398Y3301898D01*
X3955186Y3312312D01*
X3962501Y3323793D01*
X3968242Y3336188D01*
X3972306Y3349193D01*
X3974541Y3362655D01*
X3974998Y3376269D01*
X3973677Y3389833D01*
X3970477Y3403092D01*
X3965600Y3415842D01*
X3959047Y3427780D01*
X3950970Y3438753D01*
X3941470Y3448558D01*
X3930751Y3457041D01*
X3919016Y3464001D01*
X3906469Y3469284D01*
X3893312Y3472891D01*
X3879799Y3474720D01*
X3866184Y3474720D01*
X3852672Y3472891D01*
X3839514Y3469284D01*
X3826967Y3464001D01*
X3815232Y3457041D01*
X3804513Y3448558D01*
X3795014Y3438753D01*
X3786936Y3427780D01*
X3780383Y3415842D01*
X3775506Y3403092D01*
X3772306Y3389833D01*
X3770985Y3376269D01*
X3771442Y3362655D01*
X3773678Y3349193D01*
X3777742Y3336188D01*
X3783482Y3323793D01*
X3790797Y3312312D01*
X3799586Y3301898D01*
X3809746Y3292754D01*
X3820972Y3285032D01*
X3833114Y3278886D01*
X3846017Y3274415D01*
X3859377Y3271672D01*
G37*
G36*
X8872982Y3270758D02*
G01*
X8886596Y3271672D01*
X8899956Y3274415D01*
X8912860Y3278886D01*
X8925001Y3285032D01*
X8936228Y3292754D01*
X8946388Y3301898D01*
X8955176Y3312312D01*
X8962491Y3323793D01*
X8968232Y3336188D01*
X8972296Y3349193D01*
X8974531Y3362655D01*
X8974988Y3376269D01*
X8973667Y3389833D01*
X8970467Y3403092D01*
X8965590Y3415842D01*
X8959037Y3427780D01*
X8950960Y3438753D01*
X8941460Y3448558D01*
X8930741Y3457041D01*
X8919006Y3464001D01*
X8906459Y3469284D01*
X8893302Y3472891D01*
X8879789Y3474720D01*
X8866174Y3474720D01*
X8852662Y3472891D01*
X8839504Y3469284D01*
X8826957Y3464001D01*
X8815222Y3457041D01*
X8804503Y3448558D01*
X8795004Y3438753D01*
X8786926Y3427780D01*
X8780373Y3415842D01*
X8775496Y3403092D01*
X8772296Y3389833D01*
X8770975Y3376269D01*
X8771432Y3362655D01*
X8773668Y3349193D01*
X8777732Y3336188D01*
X8783472Y3323793D01*
X8790787Y3312312D01*
X8799576Y3301898D01*
X8809736Y3292754D01*
X8820962Y3285032D01*
X8833104Y3278886D01*
X8846007Y3274415D01*
X8859367Y3271672D01*
G37*
G36*
X4126992Y3270758D02*
G01*
X4140606Y3271672D01*
X4153966Y3274415D01*
X4166870Y3278886D01*
X4179011Y3285032D01*
X4190237Y3292754D01*
X4200398Y3301898D01*
X4209186Y3312312D01*
X4216501Y3323793D01*
X4222242Y3336188D01*
X4226306Y3349193D01*
X4228541Y3362655D01*
X4228998Y3376269D01*
X4227677Y3389833D01*
X4224477Y3403092D01*
X4219600Y3415842D01*
X4213047Y3427780D01*
X4204970Y3438753D01*
X4195470Y3448558D01*
X4184751Y3457041D01*
X4173016Y3464001D01*
X4160469Y3469284D01*
X4147312Y3472891D01*
X4133799Y3474720D01*
X4120184Y3474720D01*
X4106672Y3472891D01*
X4093514Y3469284D01*
X4080967Y3464001D01*
X4069232Y3457041D01*
X4058513Y3448558D01*
X4049014Y3438753D01*
X4040936Y3427780D01*
X4034383Y3415842D01*
X4029506Y3403092D01*
X4026306Y3389833D01*
X4024985Y3376269D01*
X4025442Y3362655D01*
X4027678Y3349193D01*
X4031742Y3336188D01*
X4037482Y3323793D01*
X4044797Y3312312D01*
X4053586Y3301898D01*
X4063746Y3292754D01*
X4074972Y3285032D01*
X4087114Y3278886D01*
X4100017Y3274415D01*
X4113377Y3271672D01*
G37*
G36*
X2872994Y3270758D02*
G01*
X2886608Y3271672D01*
X2899968Y3274415D01*
X2912872Y3278886D01*
X2925013Y3285032D01*
X2936240Y3292754D01*
X2946400Y3301898D01*
X2955188Y3312312D01*
X2962503Y3323793D01*
X2968244Y3336188D01*
X2972308Y3349193D01*
X2974543Y3362655D01*
X2975000Y3376269D01*
X2973679Y3389833D01*
X2970479Y3403092D01*
X2965602Y3415842D01*
X2959049Y3427780D01*
X2950972Y3438753D01*
X2941472Y3448558D01*
X2930753Y3457041D01*
X2919018Y3464001D01*
X2906471Y3469284D01*
X2893314Y3472891D01*
X2879801Y3474720D01*
X2866186Y3474720D01*
X2852674Y3472891D01*
X2839516Y3469284D01*
X2826969Y3464001D01*
X2815234Y3457041D01*
X2804515Y3448558D01*
X2795016Y3438753D01*
X2786938Y3427780D01*
X2780385Y3415842D01*
X2775508Y3403092D01*
X2772308Y3389833D01*
X2770987Y3376269D01*
X2771444Y3362655D01*
X2773680Y3349193D01*
X2777744Y3336188D01*
X2783484Y3323793D01*
X2790799Y3312312D01*
X2799588Y3301898D01*
X2809748Y3292754D01*
X2820974Y3285032D01*
X2833116Y3278886D01*
X2846019Y3274415D01*
X2859379Y3271672D01*
G37*
G36*
X3126994Y3270758D02*
G01*
X3140608Y3271672D01*
X3153968Y3274415D01*
X3166872Y3278886D01*
X3179013Y3285032D01*
X3190240Y3292754D01*
X3200400Y3301898D01*
X3209188Y3312312D01*
X3216503Y3323793D01*
X3222244Y3336188D01*
X3226308Y3349193D01*
X3228543Y3362655D01*
X3229000Y3376269D01*
X3227679Y3389833D01*
X3224479Y3403092D01*
X3219602Y3415842D01*
X3213049Y3427780D01*
X3204972Y3438753D01*
X3195472Y3448558D01*
X3184753Y3457041D01*
X3173018Y3464001D01*
X3160471Y3469284D01*
X3147314Y3472891D01*
X3133801Y3474720D01*
X3120186Y3474720D01*
X3106674Y3472891D01*
X3093516Y3469284D01*
X3080969Y3464001D01*
X3069234Y3457041D01*
X3058515Y3448558D01*
X3049016Y3438753D01*
X3040938Y3427780D01*
X3034385Y3415842D01*
X3029508Y3403092D01*
X3026308Y3389833D01*
X3024987Y3376269D01*
X3025444Y3362655D01*
X3027680Y3349193D01*
X3031744Y3336188D01*
X3037484Y3323793D01*
X3044799Y3312312D01*
X3053588Y3301898D01*
X3063748Y3292754D01*
X3074974Y3285032D01*
X3087116Y3278886D01*
X3100019Y3274415D01*
X3113379Y3271672D01*
G37*
G36*
X7872984Y3270758D02*
G01*
X7886598Y3271672D01*
X7899958Y3274415D01*
X7912862Y3278886D01*
X7925003Y3285032D01*
X7936230Y3292754D01*
X7946390Y3301898D01*
X7955178Y3312312D01*
X7962493Y3323793D01*
X7968234Y3336188D01*
X7972298Y3349193D01*
X7974533Y3362655D01*
X7974990Y3376269D01*
X7973669Y3389833D01*
X7970469Y3403092D01*
X7965592Y3415842D01*
X7959039Y3427780D01*
X7950962Y3438753D01*
X7941462Y3448558D01*
X7930743Y3457041D01*
X7919008Y3464001D01*
X7906461Y3469284D01*
X7893303Y3472891D01*
X7879791Y3474720D01*
X7866176Y3474720D01*
X7852664Y3472891D01*
X7839506Y3469284D01*
X7826959Y3464001D01*
X7815224Y3457041D01*
X7804505Y3448558D01*
X7795006Y3438753D01*
X7786928Y3427780D01*
X7780375Y3415842D01*
X7775498Y3403092D01*
X7772298Y3389833D01*
X7770977Y3376269D01*
X7771434Y3362655D01*
X7773670Y3349193D01*
X7777734Y3336188D01*
X7783474Y3323793D01*
X7790789Y3312312D01*
X7799578Y3301898D01*
X7809738Y3292754D01*
X7820964Y3285032D01*
X7833106Y3278886D01*
X7846009Y3274415D01*
X7859369Y3271672D01*
G37*
G36*
X6126988Y3270758D02*
G01*
X6140602Y3271672D01*
X6153962Y3274415D01*
X6166866Y3278886D01*
X6179007Y3285032D01*
X6190234Y3292754D01*
X6200394Y3301898D01*
X6209182Y3312312D01*
X6216497Y3323793D01*
X6222238Y3336188D01*
X6226302Y3349193D01*
X6228537Y3362655D01*
X6228994Y3376269D01*
X6227673Y3389833D01*
X6224473Y3403092D01*
X6219596Y3415842D01*
X6213043Y3427780D01*
X6204966Y3438753D01*
X6195466Y3448558D01*
X6184747Y3457041D01*
X6173012Y3464001D01*
X6160465Y3469284D01*
X6147308Y3472891D01*
X6133795Y3474720D01*
X6120180Y3474720D01*
X6106668Y3472891D01*
X6093510Y3469284D01*
X6080963Y3464001D01*
X6069228Y3457041D01*
X6058509Y3448558D01*
X6049010Y3438753D01*
X6040932Y3427780D01*
X6034379Y3415842D01*
X6029502Y3403092D01*
X6026302Y3389833D01*
X6024981Y3376269D01*
X6025438Y3362655D01*
X6027674Y3349193D01*
X6031738Y3336188D01*
X6037478Y3323793D01*
X6044793Y3312312D01*
X6053582Y3301898D01*
X6063742Y3292754D01*
X6074968Y3285032D01*
X6087110Y3278886D01*
X6100013Y3274415D01*
X6113373Y3271672D01*
G37*
G36*
X7126986Y3270758D02*
G01*
X7140600Y3271672D01*
X7153960Y3274415D01*
X7166864Y3278886D01*
X7179005Y3285032D01*
X7190231Y3292754D01*
X7200392Y3301898D01*
X7209180Y3312312D01*
X7216495Y3323793D01*
X7222236Y3336188D01*
X7226300Y3349193D01*
X7228535Y3362655D01*
X7228992Y3376269D01*
X7227671Y3389833D01*
X7224471Y3403092D01*
X7219594Y3415842D01*
X7213041Y3427780D01*
X7204964Y3438753D01*
X7195464Y3448558D01*
X7184745Y3457041D01*
X7173010Y3464001D01*
X7160463Y3469284D01*
X7147306Y3472891D01*
X7133793Y3474720D01*
X7120178Y3474720D01*
X7106666Y3472891D01*
X7093508Y3469284D01*
X7080961Y3464001D01*
X7069226Y3457041D01*
X7058507Y3448558D01*
X7049008Y3438753D01*
X7040930Y3427780D01*
X7034377Y3415842D01*
X7029500Y3403092D01*
X7026300Y3389833D01*
X7024979Y3376269D01*
X7025436Y3362655D01*
X7027672Y3349193D01*
X7031736Y3336188D01*
X7037476Y3323793D01*
X7044791Y3312312D01*
X7053580Y3301898D01*
X7063740Y3292754D01*
X7074966Y3285032D01*
X7087108Y3278886D01*
X7100011Y3274415D01*
X7113371Y3271672D01*
G37*
G36*
X8126984Y3270758D02*
G01*
X8140598Y3271672D01*
X8153958Y3274415D01*
X8166862Y3278886D01*
X8179003Y3285032D01*
X8190230Y3292754D01*
X8200390Y3301898D01*
X8209178Y3312312D01*
X8216493Y3323793D01*
X8222234Y3336188D01*
X8226298Y3349193D01*
X8228533Y3362655D01*
X8228990Y3376269D01*
X8227669Y3389833D01*
X8224469Y3403092D01*
X8219592Y3415842D01*
X8213039Y3427780D01*
X8204962Y3438753D01*
X8195462Y3448558D01*
X8184743Y3457041D01*
X8173008Y3464001D01*
X8160461Y3469284D01*
X8147303Y3472891D01*
X8133791Y3474720D01*
X8120176Y3474720D01*
X8106664Y3472891D01*
X8093506Y3469284D01*
X8080959Y3464001D01*
X8069224Y3457041D01*
X8058505Y3448558D01*
X8049006Y3438753D01*
X8040928Y3427780D01*
X8034375Y3415842D01*
X8029498Y3403092D01*
X8026298Y3389833D01*
X8024977Y3376269D01*
X8025434Y3362655D01*
X8027670Y3349193D01*
X8031734Y3336188D01*
X8037474Y3323793D01*
X8044789Y3312312D01*
X8053578Y3301898D01*
X8063738Y3292754D01*
X8074964Y3285032D01*
X8087106Y3278886D01*
X8100009Y3274415D01*
X8113369Y3271672D01*
G37*
G36*
X5872988Y3270758D02*
G01*
X5886602Y3271672D01*
X5899962Y3274415D01*
X5912866Y3278886D01*
X5925007Y3285032D01*
X5936234Y3292754D01*
X5946394Y3301898D01*
X5955182Y3312312D01*
X5962497Y3323793D01*
X5968238Y3336188D01*
X5972302Y3349193D01*
X5974537Y3362655D01*
X5974994Y3376269D01*
X5973673Y3389833D01*
X5970473Y3403092D01*
X5965596Y3415842D01*
X5959043Y3427780D01*
X5950966Y3438753D01*
X5941466Y3448558D01*
X5930747Y3457041D01*
X5919012Y3464001D01*
X5906465Y3469284D01*
X5893308Y3472891D01*
X5879795Y3474720D01*
X5866180Y3474720D01*
X5852668Y3472891D01*
X5839510Y3469284D01*
X5826963Y3464001D01*
X5815228Y3457041D01*
X5804509Y3448558D01*
X5795010Y3438753D01*
X5786932Y3427780D01*
X5780379Y3415842D01*
X5775502Y3403092D01*
X5772302Y3389833D01*
X5770981Y3376269D01*
X5771438Y3362655D01*
X5773674Y3349193D01*
X5777738Y3336188D01*
X5783478Y3323793D01*
X5790793Y3312312D01*
X5799582Y3301898D01*
X5809742Y3292754D01*
X5820968Y3285032D01*
X5833110Y3278886D01*
X5846013Y3274415D01*
X5859373Y3271672D01*
G37*
G36*
X6872986Y3270758D02*
G01*
X6886600Y3271672D01*
X6899960Y3274415D01*
X6912864Y3278886D01*
X6925005Y3285032D01*
X6936231Y3292754D01*
X6946392Y3301898D01*
X6955180Y3312312D01*
X6962495Y3323793D01*
X6968236Y3336188D01*
X6972300Y3349193D01*
X6974535Y3362655D01*
X6974992Y3376269D01*
X6973671Y3389833D01*
X6970471Y3403092D01*
X6965594Y3415842D01*
X6959041Y3427780D01*
X6950964Y3438753D01*
X6941464Y3448558D01*
X6930745Y3457041D01*
X6919010Y3464001D01*
X6906463Y3469284D01*
X6893306Y3472891D01*
X6879793Y3474720D01*
X6866178Y3474720D01*
X6852666Y3472891D01*
X6839508Y3469284D01*
X6826961Y3464001D01*
X6815226Y3457041D01*
X6804507Y3448558D01*
X6795008Y3438753D01*
X6786930Y3427780D01*
X6780377Y3415842D01*
X6775500Y3403092D01*
X6772300Y3389833D01*
X6770979Y3376269D01*
X6771436Y3362655D01*
X6773672Y3349193D01*
X6777736Y3336188D01*
X6783476Y3323793D01*
X6790791Y3312312D01*
X6799580Y3301898D01*
X6809740Y3292754D01*
X6820966Y3285032D01*
X6833108Y3278886D01*
X6846011Y3274415D01*
X6859371Y3271672D01*
G37*
G36*
X9126982Y3270758D02*
G01*
X9140596Y3271672D01*
X9153956Y3274415D01*
X9166860Y3278886D01*
X9179001Y3285032D01*
X9190228Y3292754D01*
X9200388Y3301898D01*
X9209176Y3312312D01*
X9216491Y3323793D01*
X9222232Y3336188D01*
X9226296Y3349193D01*
X9228531Y3362655D01*
X9228988Y3376269D01*
X9227667Y3389833D01*
X9224467Y3403092D01*
X9219590Y3415842D01*
X9213037Y3427780D01*
X9204960Y3438753D01*
X9195460Y3448558D01*
X9184741Y3457041D01*
X9173006Y3464001D01*
X9160459Y3469284D01*
X9147302Y3472891D01*
X9133789Y3474720D01*
X9120174Y3474720D01*
X9106662Y3472891D01*
X9093504Y3469284D01*
X9080957Y3464001D01*
X9069222Y3457041D01*
X9058503Y3448558D01*
X9049004Y3438753D01*
X9040926Y3427780D01*
X9034373Y3415842D01*
X9029496Y3403092D01*
X9026296Y3389833D01*
X9024975Y3376269D01*
X9025432Y3362655D01*
X9027668Y3349193D01*
X9031732Y3336188D01*
X9037472Y3323793D01*
X9044787Y3312312D01*
X9053576Y3301898D01*
X9063736Y3292754D01*
X9074962Y3285032D01*
X9087104Y3278886D01*
X9100007Y3274415D01*
X9113367Y3271672D01*
G37*
G36*
X1872996Y3270758D02*
G01*
X1886610Y3271672D01*
X1899970Y3274415D01*
X1912874Y3278886D01*
X1925015Y3285032D01*
X1936242Y3292754D01*
X1946402Y3301898D01*
X1955190Y3312312D01*
X1962505Y3323793D01*
X1968246Y3336188D01*
X1972310Y3349193D01*
X1974545Y3362655D01*
X1975002Y3376269D01*
X1973681Y3389833D01*
X1970481Y3403092D01*
X1965604Y3415842D01*
X1959051Y3427780D01*
X1950974Y3438753D01*
X1941474Y3448558D01*
X1930755Y3457041D01*
X1919020Y3464001D01*
X1906473Y3469284D01*
X1893316Y3472891D01*
X1879803Y3474720D01*
X1866188Y3474720D01*
X1852675Y3472891D01*
X1839518Y3469284D01*
X1826971Y3464001D01*
X1815236Y3457041D01*
X1804517Y3448558D01*
X1795018Y3438753D01*
X1786940Y3427780D01*
X1780387Y3415842D01*
X1775510Y3403092D01*
X1772310Y3389833D01*
X1770989Y3376269D01*
X1771446Y3362655D01*
X1773682Y3349193D01*
X1777746Y3336188D01*
X1783486Y3323793D01*
X1790801Y3312312D01*
X1799589Y3301898D01*
X1809750Y3292754D01*
X1820976Y3285032D01*
X1833118Y3278886D01*
X1846021Y3274415D01*
X1859381Y3271672D01*
G37*
G36*
X1126998Y3270758D02*
G01*
X1140612Y3271672D01*
X1153972Y3274415D01*
X1166876Y3278886D01*
X1179017Y3285032D01*
X1190244Y3292754D01*
X1200404Y3301898D01*
X1209192Y3312312D01*
X1216507Y3323793D01*
X1222248Y3336188D01*
X1226312Y3349193D01*
X1228547Y3362655D01*
X1229004Y3376269D01*
X1227683Y3389833D01*
X1224483Y3403092D01*
X1219606Y3415842D01*
X1213053Y3427780D01*
X1204976Y3438753D01*
X1195476Y3448558D01*
X1184757Y3457041D01*
X1173022Y3464001D01*
X1160475Y3469284D01*
X1147318Y3472891D01*
X1133805Y3474720D01*
X1120190Y3474720D01*
X1106678Y3472891D01*
X1093520Y3469284D01*
X1080973Y3464001D01*
X1069238Y3457041D01*
X1058519Y3448558D01*
X1049020Y3438753D01*
X1040942Y3427780D01*
X1034389Y3415842D01*
X1029512Y3403092D01*
X1026312Y3389833D01*
X1024991Y3376269D01*
X1025448Y3362655D01*
X1027684Y3349193D01*
X1031748Y3336188D01*
X1037488Y3323793D01*
X1044803Y3312312D01*
X1053592Y3301898D01*
X1063752Y3292754D01*
X1074978Y3285032D01*
X1087120Y3278886D01*
X1100023Y3274415D01*
X1113383Y3271672D01*
G37*
G36*
X872998Y3270758D02*
G01*
X886612Y3271672D01*
X899972Y3274415D01*
X912876Y3278886D01*
X925017Y3285032D01*
X936244Y3292754D01*
X946403Y3301898D01*
X955192Y3312312D01*
X962507Y3323793D01*
X968248Y3336188D01*
X972312Y3349193D01*
X974547Y3362655D01*
X975004Y3376269D01*
X973683Y3389833D01*
X970483Y3403092D01*
X965606Y3415842D01*
X959053Y3427780D01*
X950976Y3438753D01*
X941476Y3448558D01*
X930757Y3457041D01*
X919022Y3464001D01*
X906475Y3469284D01*
X893318Y3472891D01*
X879805Y3474720D01*
X866190Y3474720D01*
X852678Y3472891D01*
X839520Y3469284D01*
X826973Y3464001D01*
X815238Y3457041D01*
X804519Y3448558D01*
X795020Y3438753D01*
X786942Y3427780D01*
X780389Y3415842D01*
X775512Y3403092D01*
X772312Y3389833D01*
X770991Y3376269D01*
X771448Y3362655D01*
X773684Y3349193D01*
X777748Y3336188D01*
X783488Y3323793D01*
X790803Y3312312D01*
X799592Y3301898D01*
X809752Y3292754D01*
X820978Y3285032D01*
X833119Y3278886D01*
X846023Y3274415D01*
X859383Y3271672D01*
G37*
G36*
X3599992Y3316630D02*
G01*
X3609797Y3317494D01*
X3619246Y3320034D01*
X3628186Y3324199D01*
X3636213Y3329838D01*
X3643172Y3336747D01*
X3648811Y3344824D01*
X3652926Y3353714D01*
X3655466Y3363214D01*
X3656329Y3372967D01*
X3655466Y3382772D01*
X3652926Y3392271D01*
X3651859Y3394608D01*
X3650894Y3398875D01*
X3650894Y9374073D01*
X3651859Y9378391D01*
X3652926Y9380728D01*
X3655466Y9390176D01*
X3656329Y9399981D01*
X3655466Y9409785D01*
X3652926Y9419234D01*
X3648811Y9428175D01*
X3643172Y9436201D01*
X3636213Y9443161D01*
X3628186Y9448800D01*
X3619246Y9452914D01*
X3609797Y9455454D01*
X3599992Y9456318D01*
X3590188Y9455454D01*
X3580739Y9452914D01*
X3571798Y9448800D01*
X3563772Y9443161D01*
X3556812Y9436201D01*
X3551174Y9428175D01*
X3547059Y9419234D01*
X3544519Y9409785D01*
X3543655Y9399981D01*
X3544519Y9390176D01*
X3547059Y9380728D01*
X3548126Y9378391D01*
X3549091Y9374073D01*
X3549091Y3398875D01*
X3548126Y3394608D01*
X3547059Y3392271D01*
X3544519Y3382772D01*
X3543655Y3372967D01*
X3544519Y3363214D01*
X3547059Y3353714D01*
X3551174Y3344824D01*
X3556812Y3336747D01*
X3563772Y3329838D01*
X3571798Y3324199D01*
X3580739Y3320034D01*
X3590188Y3317494D01*
G37*
G36*
X8126984Y3524758D02*
G01*
X8140598Y3525672D01*
X8153958Y3528415D01*
X8166862Y3532886D01*
X8179003Y3539032D01*
X8190230Y3546754D01*
X8200390Y3555898D01*
X8209178Y3566312D01*
X8216493Y3577793D01*
X8222234Y3590188D01*
X8226298Y3603193D01*
X8228533Y3616655D01*
X8228990Y3630269D01*
X8227669Y3643833D01*
X8224469Y3657092D01*
X8219592Y3669842D01*
X8213039Y3681780D01*
X8204962Y3692753D01*
X8195462Y3702558D01*
X8184743Y3711041D01*
X8173008Y3718001D01*
X8160461Y3723284D01*
X8147303Y3726891D01*
X8133791Y3728720D01*
X8120176Y3728720D01*
X8106664Y3726891D01*
X8093506Y3723284D01*
X8080959Y3718001D01*
X8069224Y3711041D01*
X8058505Y3702558D01*
X8049006Y3692753D01*
X8040928Y3681780D01*
X8034375Y3669842D01*
X8029498Y3657092D01*
X8026298Y3643833D01*
X8024977Y3630269D01*
X8025434Y3616655D01*
X8027670Y3603193D01*
X8031734Y3590188D01*
X8037474Y3577793D01*
X8044789Y3566312D01*
X8053578Y3555898D01*
X8063738Y3546754D01*
X8074964Y3539032D01*
X8087106Y3532886D01*
X8100009Y3528415D01*
X8113369Y3525672D01*
G37*
G36*
X2872994Y3524758D02*
G01*
X2886608Y3525672D01*
X2899968Y3528415D01*
X2912872Y3532886D01*
X2925013Y3539032D01*
X2936240Y3546754D01*
X2946400Y3555898D01*
X2955188Y3566312D01*
X2962503Y3577793D01*
X2968244Y3590188D01*
X2972308Y3603193D01*
X2974543Y3616655D01*
X2975000Y3630269D01*
X2973679Y3643833D01*
X2970479Y3657092D01*
X2965602Y3669842D01*
X2959049Y3681780D01*
X2950972Y3692753D01*
X2941472Y3702558D01*
X2930753Y3711041D01*
X2919018Y3718001D01*
X2906471Y3723284D01*
X2893314Y3726891D01*
X2879801Y3728720D01*
X2866186Y3728720D01*
X2852674Y3726891D01*
X2839516Y3723284D01*
X2826969Y3718001D01*
X2815234Y3711041D01*
X2804515Y3702558D01*
X2795016Y3692753D01*
X2786938Y3681780D01*
X2780385Y3669842D01*
X2775508Y3657092D01*
X2772308Y3643833D01*
X2770987Y3630269D01*
X2771444Y3616655D01*
X2773680Y3603193D01*
X2777744Y3590188D01*
X2783484Y3577793D01*
X2790799Y3566312D01*
X2799588Y3555898D01*
X2809748Y3546754D01*
X2820974Y3539032D01*
X2833116Y3532886D01*
X2846019Y3528415D01*
X2859379Y3525672D01*
G37*
G36*
X4126992Y3524758D02*
G01*
X4140606Y3525672D01*
X4153966Y3528415D01*
X4166870Y3532886D01*
X4179011Y3539032D01*
X4190237Y3546754D01*
X4200398Y3555898D01*
X4209186Y3566312D01*
X4216501Y3577793D01*
X4222242Y3590188D01*
X4226306Y3603193D01*
X4228541Y3616655D01*
X4228998Y3630269D01*
X4227677Y3643833D01*
X4224477Y3657092D01*
X4219600Y3669842D01*
X4213047Y3681780D01*
X4204970Y3692753D01*
X4195470Y3702558D01*
X4184751Y3711041D01*
X4173016Y3718001D01*
X4160469Y3723284D01*
X4147312Y3726891D01*
X4133799Y3728720D01*
X4120184Y3728720D01*
X4106672Y3726891D01*
X4093514Y3723284D01*
X4080967Y3718001D01*
X4069232Y3711041D01*
X4058513Y3702558D01*
X4049014Y3692753D01*
X4040936Y3681780D01*
X4034383Y3669842D01*
X4029506Y3657092D01*
X4026306Y3643833D01*
X4024985Y3630269D01*
X4025442Y3616655D01*
X4027678Y3603193D01*
X4031742Y3590188D01*
X4037482Y3577793D01*
X4044797Y3566312D01*
X4053586Y3555898D01*
X4063746Y3546754D01*
X4074972Y3539032D01*
X4087114Y3532886D01*
X4100017Y3528415D01*
X4113377Y3525672D01*
G37*
G36*
X3872992Y3524758D02*
G01*
X3886606Y3525672D01*
X3899966Y3528415D01*
X3912870Y3532886D01*
X3925011Y3539032D01*
X3936237Y3546754D01*
X3946398Y3555898D01*
X3955186Y3566312D01*
X3962501Y3577793D01*
X3968242Y3590188D01*
X3972306Y3603193D01*
X3974541Y3616655D01*
X3974998Y3630269D01*
X3973677Y3643833D01*
X3970477Y3657092D01*
X3965600Y3669842D01*
X3959047Y3681780D01*
X3950970Y3692753D01*
X3941470Y3702558D01*
X3930751Y3711041D01*
X3919016Y3718001D01*
X3906469Y3723284D01*
X3893312Y3726891D01*
X3879799Y3728720D01*
X3866184Y3728720D01*
X3852672Y3726891D01*
X3839514Y3723284D01*
X3826967Y3718001D01*
X3815232Y3711041D01*
X3804513Y3702558D01*
X3795014Y3692753D01*
X3786936Y3681780D01*
X3780383Y3669842D01*
X3775506Y3657092D01*
X3772306Y3643833D01*
X3770985Y3630269D01*
X3771442Y3616655D01*
X3773678Y3603193D01*
X3777742Y3590188D01*
X3783482Y3577793D01*
X3790797Y3566312D01*
X3799586Y3555898D01*
X3809746Y3546754D01*
X3820972Y3539032D01*
X3833114Y3532886D01*
X3846017Y3528415D01*
X3859377Y3525672D01*
G37*
G36*
X3126994Y3524758D02*
G01*
X3140608Y3525672D01*
X3153968Y3528415D01*
X3166872Y3532886D01*
X3179013Y3539032D01*
X3190240Y3546754D01*
X3200400Y3555898D01*
X3209188Y3566312D01*
X3216503Y3577793D01*
X3222244Y3590188D01*
X3226308Y3603193D01*
X3228543Y3616655D01*
X3229000Y3630269D01*
X3227679Y3643833D01*
X3224479Y3657092D01*
X3219602Y3669842D01*
X3213049Y3681780D01*
X3204972Y3692753D01*
X3195472Y3702558D01*
X3184753Y3711041D01*
X3173018Y3718001D01*
X3160471Y3723284D01*
X3147314Y3726891D01*
X3133801Y3728720D01*
X3120186Y3728720D01*
X3106674Y3726891D01*
X3093516Y3723284D01*
X3080969Y3718001D01*
X3069234Y3711041D01*
X3058515Y3702558D01*
X3049016Y3692753D01*
X3040938Y3681780D01*
X3034385Y3669842D01*
X3029508Y3657092D01*
X3026308Y3643833D01*
X3024987Y3630269D01*
X3025444Y3616655D01*
X3027680Y3603193D01*
X3031744Y3590188D01*
X3037484Y3577793D01*
X3044799Y3566312D01*
X3053588Y3555898D01*
X3063748Y3546754D01*
X3074974Y3539032D01*
X3087116Y3532886D01*
X3100019Y3528415D01*
X3113379Y3525672D01*
G37*
G36*
X6126988Y3524758D02*
G01*
X6140602Y3525672D01*
X6153962Y3528415D01*
X6166866Y3532886D01*
X6179007Y3539032D01*
X6190234Y3546754D01*
X6200394Y3555898D01*
X6209182Y3566312D01*
X6216497Y3577793D01*
X6222238Y3590188D01*
X6226302Y3603193D01*
X6228537Y3616655D01*
X6228994Y3630269D01*
X6227673Y3643833D01*
X6224473Y3657092D01*
X6219596Y3669842D01*
X6213043Y3681780D01*
X6204966Y3692753D01*
X6195466Y3702558D01*
X6184747Y3711041D01*
X6173012Y3718001D01*
X6160465Y3723284D01*
X6147308Y3726891D01*
X6133795Y3728720D01*
X6120180Y3728720D01*
X6106668Y3726891D01*
X6093510Y3723284D01*
X6080963Y3718001D01*
X6069228Y3711041D01*
X6058509Y3702558D01*
X6049010Y3692753D01*
X6040932Y3681780D01*
X6034379Y3669842D01*
X6029502Y3657092D01*
X6026302Y3643833D01*
X6024981Y3630269D01*
X6025438Y3616655D01*
X6027674Y3603193D01*
X6031738Y3590188D01*
X6037478Y3577793D01*
X6044793Y3566312D01*
X6053582Y3555898D01*
X6063742Y3546754D01*
X6074968Y3539032D01*
X6087110Y3532886D01*
X6100013Y3528415D01*
X6113373Y3525672D01*
G37*
G36*
X8872982Y3524758D02*
G01*
X8886596Y3525672D01*
X8899956Y3528415D01*
X8912860Y3532886D01*
X8925001Y3539032D01*
X8936228Y3546754D01*
X8946388Y3555898D01*
X8955176Y3566312D01*
X8962491Y3577793D01*
X8968232Y3590188D01*
X8972296Y3603193D01*
X8974531Y3616655D01*
X8974988Y3630269D01*
X8973667Y3643833D01*
X8970467Y3657092D01*
X8965590Y3669842D01*
X8959037Y3681780D01*
X8950960Y3692753D01*
X8941460Y3702558D01*
X8930741Y3711041D01*
X8919006Y3718001D01*
X8906459Y3723284D01*
X8893302Y3726891D01*
X8879789Y3728720D01*
X8866174Y3728720D01*
X8852662Y3726891D01*
X8839504Y3723284D01*
X8826957Y3718001D01*
X8815222Y3711041D01*
X8804503Y3702558D01*
X8795004Y3692753D01*
X8786926Y3681780D01*
X8780373Y3669842D01*
X8775496Y3657092D01*
X8772296Y3643833D01*
X8770975Y3630269D01*
X8771432Y3616655D01*
X8773668Y3603193D01*
X8777732Y3590188D01*
X8783472Y3577793D01*
X8790787Y3566312D01*
X8799576Y3555898D01*
X8809736Y3546754D01*
X8820962Y3539032D01*
X8833104Y3532886D01*
X8846007Y3528415D01*
X8859367Y3525672D01*
G37*
G36*
X7126986Y3524758D02*
G01*
X7140600Y3525672D01*
X7153960Y3528415D01*
X7166864Y3532886D01*
X7179005Y3539032D01*
X7190231Y3546754D01*
X7200392Y3555898D01*
X7209180Y3566312D01*
X7216495Y3577793D01*
X7222236Y3590188D01*
X7226300Y3603193D01*
X7228535Y3616655D01*
X7228992Y3630269D01*
X7227671Y3643833D01*
X7224471Y3657092D01*
X7219594Y3669842D01*
X7213041Y3681780D01*
X7204964Y3692753D01*
X7195464Y3702558D01*
X7184745Y3711041D01*
X7173010Y3718001D01*
X7160463Y3723284D01*
X7147306Y3726891D01*
X7133793Y3728720D01*
X7120178Y3728720D01*
X7106666Y3726891D01*
X7093508Y3723284D01*
X7080961Y3718001D01*
X7069226Y3711041D01*
X7058507Y3702558D01*
X7049008Y3692753D01*
X7040930Y3681780D01*
X7034377Y3669842D01*
X7029500Y3657092D01*
X7026300Y3643833D01*
X7024979Y3630269D01*
X7025436Y3616655D01*
X7027672Y3603193D01*
X7031736Y3590188D01*
X7037476Y3577793D01*
X7044791Y3566312D01*
X7053580Y3555898D01*
X7063740Y3546754D01*
X7074966Y3539032D01*
X7087108Y3532886D01*
X7100011Y3528415D01*
X7113371Y3525672D01*
G37*
G36*
X6872986Y3524758D02*
G01*
X6886600Y3525672D01*
X6899960Y3528415D01*
X6912864Y3532886D01*
X6925005Y3539032D01*
X6936231Y3546754D01*
X6946392Y3555898D01*
X6955180Y3566312D01*
X6962495Y3577793D01*
X6968236Y3590188D01*
X6972300Y3603193D01*
X6974535Y3616655D01*
X6974992Y3630269D01*
X6973671Y3643833D01*
X6970471Y3657092D01*
X6965594Y3669842D01*
X6959041Y3681780D01*
X6950964Y3692753D01*
X6941464Y3702558D01*
X6930745Y3711041D01*
X6919010Y3718001D01*
X6906463Y3723284D01*
X6893306Y3726891D01*
X6879793Y3728720D01*
X6866178Y3728720D01*
X6852666Y3726891D01*
X6839508Y3723284D01*
X6826961Y3718001D01*
X6815226Y3711041D01*
X6804507Y3702558D01*
X6795008Y3692753D01*
X6786930Y3681780D01*
X6780377Y3669842D01*
X6775500Y3657092D01*
X6772300Y3643833D01*
X6770979Y3630269D01*
X6771436Y3616655D01*
X6773672Y3603193D01*
X6777736Y3590188D01*
X6783476Y3577793D01*
X6790791Y3566312D01*
X6799580Y3555898D01*
X6809740Y3546754D01*
X6820966Y3539032D01*
X6833108Y3532886D01*
X6846011Y3528415D01*
X6859371Y3525672D01*
G37*
G36*
X7872984Y3524758D02*
G01*
X7886598Y3525672D01*
X7899958Y3528415D01*
X7912862Y3532886D01*
X7925003Y3539032D01*
X7936230Y3546754D01*
X7946390Y3555898D01*
X7955178Y3566312D01*
X7962493Y3577793D01*
X7968234Y3590188D01*
X7972298Y3603193D01*
X7974533Y3616655D01*
X7974990Y3630269D01*
X7973669Y3643833D01*
X7970469Y3657092D01*
X7965592Y3669842D01*
X7959039Y3681780D01*
X7950962Y3692753D01*
X7941462Y3702558D01*
X7930743Y3711041D01*
X7919008Y3718001D01*
X7906461Y3723284D01*
X7893303Y3726891D01*
X7879791Y3728720D01*
X7866176Y3728720D01*
X7852664Y3726891D01*
X7839506Y3723284D01*
X7826959Y3718001D01*
X7815224Y3711041D01*
X7804505Y3702558D01*
X7795006Y3692753D01*
X7786928Y3681780D01*
X7780375Y3669842D01*
X7775498Y3657092D01*
X7772298Y3643833D01*
X7770977Y3630269D01*
X7771434Y3616655D01*
X7773670Y3603193D01*
X7777734Y3590188D01*
X7783474Y3577793D01*
X7790789Y3566312D01*
X7799578Y3555898D01*
X7809738Y3546754D01*
X7820964Y3539032D01*
X7833106Y3532886D01*
X7846009Y3528415D01*
X7859369Y3525672D01*
G37*
G36*
X2126996Y3524758D02*
G01*
X2140610Y3525672D01*
X2153970Y3528415D01*
X2166874Y3532886D01*
X2179015Y3539032D01*
X2190242Y3546754D01*
X2200402Y3555898D01*
X2209190Y3566312D01*
X2216505Y3577793D01*
X2222246Y3590188D01*
X2226310Y3603193D01*
X2228545Y3616655D01*
X2229002Y3630269D01*
X2227681Y3643833D01*
X2224481Y3657092D01*
X2219604Y3669842D01*
X2213051Y3681780D01*
X2204974Y3692753D01*
X2195474Y3702558D01*
X2184755Y3711041D01*
X2173020Y3718001D01*
X2160473Y3723284D01*
X2147316Y3726891D01*
X2133803Y3728720D01*
X2120188Y3728720D01*
X2106676Y3726891D01*
X2093518Y3723284D01*
X2080971Y3718001D01*
X2069236Y3711041D01*
X2058517Y3702558D01*
X2049018Y3692753D01*
X2040940Y3681780D01*
X2034387Y3669842D01*
X2029510Y3657092D01*
X2026310Y3643833D01*
X2024989Y3630269D01*
X2025446Y3616655D01*
X2027682Y3603193D01*
X2031746Y3590188D01*
X2037486Y3577793D01*
X2044801Y3566312D01*
X2053589Y3555898D01*
X2063750Y3546754D01*
X2074976Y3539032D01*
X2087118Y3532886D01*
X2100021Y3528415D01*
X2113381Y3525672D01*
G37*
G36*
X5872988Y3524758D02*
G01*
X5886602Y3525672D01*
X5899962Y3528415D01*
X5912866Y3532886D01*
X5925007Y3539032D01*
X5936234Y3546754D01*
X5946394Y3555898D01*
X5955182Y3566312D01*
X5962497Y3577793D01*
X5968238Y3590188D01*
X5972302Y3603193D01*
X5974537Y3616655D01*
X5974994Y3630269D01*
X5973673Y3643833D01*
X5970473Y3657092D01*
X5965596Y3669842D01*
X5959043Y3681780D01*
X5950966Y3692753D01*
X5941466Y3702558D01*
X5930747Y3711041D01*
X5919012Y3718001D01*
X5906465Y3723284D01*
X5893308Y3726891D01*
X5879795Y3728720D01*
X5866180Y3728720D01*
X5852668Y3726891D01*
X5839510Y3723284D01*
X5826963Y3718001D01*
X5815228Y3711041D01*
X5804509Y3702558D01*
X5795010Y3692753D01*
X5786932Y3681780D01*
X5780379Y3669842D01*
X5775502Y3657092D01*
X5772302Y3643833D01*
X5770981Y3630269D01*
X5771438Y3616655D01*
X5773674Y3603193D01*
X5777738Y3590188D01*
X5783478Y3577793D01*
X5790793Y3566312D01*
X5799582Y3555898D01*
X5809742Y3546754D01*
X5820968Y3539032D01*
X5833110Y3532886D01*
X5846013Y3528415D01*
X5859373Y3525672D01*
G37*
G36*
X9126982Y3524758D02*
G01*
X9140596Y3525672D01*
X9153956Y3528415D01*
X9166860Y3532886D01*
X9179001Y3539032D01*
X9190228Y3546754D01*
X9200388Y3555898D01*
X9209176Y3566312D01*
X9216491Y3577793D01*
X9222232Y3590188D01*
X9226296Y3603193D01*
X9228531Y3616655D01*
X9228988Y3630269D01*
X9227667Y3643833D01*
X9224467Y3657092D01*
X9219590Y3669842D01*
X9213037Y3681780D01*
X9204960Y3692753D01*
X9195460Y3702558D01*
X9184741Y3711041D01*
X9173006Y3718001D01*
X9160459Y3723284D01*
X9147302Y3726891D01*
X9133789Y3728720D01*
X9120174Y3728720D01*
X9106662Y3726891D01*
X9093504Y3723284D01*
X9080957Y3718001D01*
X9069222Y3711041D01*
X9058503Y3702558D01*
X9049004Y3692753D01*
X9040926Y3681780D01*
X9034373Y3669842D01*
X9029496Y3657092D01*
X9026296Y3643833D01*
X9024975Y3630269D01*
X9025432Y3616655D01*
X9027668Y3603193D01*
X9031732Y3590188D01*
X9037472Y3577793D01*
X9044787Y3566312D01*
X9053576Y3555898D01*
X9063736Y3546754D01*
X9074962Y3539032D01*
X9087104Y3532886D01*
X9100007Y3528415D01*
X9113367Y3525672D01*
G37*
G36*
X1872996Y3524758D02*
G01*
X1886610Y3525672D01*
X1899970Y3528415D01*
X1912874Y3532886D01*
X1925015Y3539032D01*
X1936242Y3546754D01*
X1946402Y3555898D01*
X1955190Y3566312D01*
X1962505Y3577793D01*
X1968246Y3590188D01*
X1972310Y3603193D01*
X1974545Y3616655D01*
X1975002Y3630269D01*
X1973681Y3643833D01*
X1970481Y3657092D01*
X1965604Y3669842D01*
X1959051Y3681780D01*
X1950974Y3692753D01*
X1941474Y3702558D01*
X1930755Y3711041D01*
X1919020Y3718001D01*
X1906473Y3723284D01*
X1893316Y3726891D01*
X1879803Y3728720D01*
X1866188Y3728720D01*
X1852675Y3726891D01*
X1839518Y3723284D01*
X1826971Y3718001D01*
X1815236Y3711041D01*
X1804517Y3702558D01*
X1795018Y3692753D01*
X1786940Y3681780D01*
X1780387Y3669842D01*
X1775510Y3657092D01*
X1772310Y3643833D01*
X1770989Y3630269D01*
X1771446Y3616655D01*
X1773682Y3603193D01*
X1777746Y3590188D01*
X1783486Y3577793D01*
X1790801Y3566312D01*
X1799589Y3555898D01*
X1809750Y3546754D01*
X1820976Y3539032D01*
X1833118Y3532886D01*
X1846021Y3528415D01*
X1859381Y3525672D01*
G37*
G36*
X1126998Y3524758D02*
G01*
X1140612Y3525672D01*
X1153972Y3528415D01*
X1166876Y3532886D01*
X1179017Y3539032D01*
X1190244Y3546754D01*
X1200404Y3555898D01*
X1209192Y3566312D01*
X1216507Y3577793D01*
X1222248Y3590188D01*
X1226312Y3603193D01*
X1228547Y3616655D01*
X1229004Y3630269D01*
X1227683Y3643833D01*
X1224483Y3657092D01*
X1219606Y3669842D01*
X1213053Y3681780D01*
X1204976Y3692753D01*
X1195476Y3702558D01*
X1184757Y3711041D01*
X1173022Y3718001D01*
X1160475Y3723284D01*
X1147318Y3726891D01*
X1133805Y3728720D01*
X1120190Y3728720D01*
X1106678Y3726891D01*
X1093520Y3723284D01*
X1080973Y3718001D01*
X1069238Y3711041D01*
X1058519Y3702558D01*
X1049020Y3692753D01*
X1040942Y3681780D01*
X1034389Y3669842D01*
X1029512Y3657092D01*
X1026312Y3643833D01*
X1024991Y3630269D01*
X1025448Y3616655D01*
X1027684Y3603193D01*
X1031748Y3590188D01*
X1037488Y3577793D01*
X1044803Y3566312D01*
X1053592Y3555898D01*
X1063752Y3546754D01*
X1074978Y3539032D01*
X1087120Y3532886D01*
X1100023Y3528415D01*
X1113383Y3525672D01*
G37*
G36*
X872998Y3524758D02*
G01*
X886612Y3525672D01*
X899972Y3528415D01*
X912876Y3532886D01*
X925017Y3539032D01*
X936244Y3546754D01*
X946403Y3555898D01*
X955192Y3566312D01*
X962507Y3577793D01*
X968248Y3590188D01*
X972312Y3603193D01*
X974547Y3616655D01*
X975004Y3630269D01*
X973683Y3643833D01*
X970483Y3657092D01*
X965606Y3669842D01*
X959053Y3681780D01*
X950976Y3692753D01*
X941476Y3702558D01*
X930757Y3711041D01*
X919022Y3718001D01*
X906475Y3723284D01*
X893318Y3726891D01*
X879805Y3728720D01*
X866190Y3728720D01*
X852678Y3726891D01*
X839520Y3723284D01*
X826973Y3718001D01*
X815238Y3711041D01*
X804519Y3702558D01*
X795020Y3692753D01*
X786942Y3681780D01*
X780389Y3669842D01*
X775512Y3657092D01*
X772312Y3643833D01*
X770991Y3630269D01*
X771448Y3616655D01*
X773684Y3603193D01*
X777748Y3590188D01*
X783488Y3577793D01*
X790803Y3566312D01*
X799592Y3555898D01*
X809752Y3546754D01*
X820978Y3539032D01*
X833119Y3532886D01*
X846023Y3528415D01*
X859383Y3525672D01*
G37*
G36*
X3399993Y3570630D02*
G01*
X3409797Y3571494D01*
X3419246Y3574034D01*
X3428187Y3578199D01*
X3436213Y3583838D01*
X3443173Y3590747D01*
X3448812Y3598824D01*
X3452926Y3607714D01*
X3455466Y3617214D01*
X3456330Y3626967D01*
X3455466Y3636772D01*
X3452926Y3646271D01*
X3451860Y3648608D01*
X3450894Y3652875D01*
X3450894Y9574072D01*
X3451860Y9578390D01*
X3452926Y9580727D01*
X3455466Y9590176D01*
X3456330Y9599980D01*
X3455466Y9609785D01*
X3452926Y9619234D01*
X3448812Y9628174D01*
X3443173Y9636201D01*
X3436213Y9643160D01*
X3428187Y9648799D01*
X3419246Y9652914D01*
X3409797Y9655454D01*
X3399993Y9656318D01*
X3390188Y9655454D01*
X3380740Y9652914D01*
X3371799Y9648799D01*
X3363772Y9643160D01*
X3356813Y9636201D01*
X3351174Y9628174D01*
X3347059Y9619234D01*
X3344519Y9609785D01*
X3343656Y9599980D01*
X3344519Y9590176D01*
X3347059Y9580727D01*
X3348126Y9578390D01*
X3349091Y9574072D01*
X3349091Y3652875D01*
X3348126Y3648608D01*
X3347059Y3646271D01*
X3344519Y3636772D01*
X3343656Y3626967D01*
X3344519Y3617214D01*
X3347059Y3607714D01*
X3351174Y3598824D01*
X3356813Y3590747D01*
X3363772Y3583838D01*
X3371799Y3578199D01*
X3380740Y3574034D01*
X3390188Y3571494D01*
G37*
G36*
X6872986Y3778758D02*
G01*
X6886600Y3779672D01*
X6899960Y3782415D01*
X6912864Y3786886D01*
X6925005Y3793032D01*
X6936231Y3800754D01*
X6946392Y3809898D01*
X6955180Y3820312D01*
X6962495Y3831793D01*
X6968236Y3844188D01*
X6972300Y3857193D01*
X6974535Y3870655D01*
X6974992Y3884269D01*
X6973671Y3897833D01*
X6970471Y3911092D01*
X6965594Y3923842D01*
X6959041Y3935780D01*
X6950964Y3946753D01*
X6941464Y3956558D01*
X6930745Y3965041D01*
X6919010Y3972001D01*
X6906463Y3977284D01*
X6893306Y3980891D01*
X6879793Y3982720D01*
X6866178Y3982720D01*
X6852666Y3980891D01*
X6839508Y3977284D01*
X6826961Y3972001D01*
X6815226Y3965041D01*
X6804507Y3956558D01*
X6795008Y3946753D01*
X6786930Y3935780D01*
X6780377Y3923842D01*
X6775500Y3911092D01*
X6772300Y3897833D01*
X6770979Y3884269D01*
X6771436Y3870655D01*
X6773672Y3857193D01*
X6777736Y3844188D01*
X6783476Y3831793D01*
X6790791Y3820312D01*
X6799580Y3809898D01*
X6809740Y3800754D01*
X6820966Y3793032D01*
X6833108Y3786886D01*
X6846011Y3782415D01*
X6859371Y3779672D01*
G37*
G36*
X2872994Y3778758D02*
G01*
X2886608Y3779672D01*
X2899968Y3782415D01*
X2912872Y3786886D01*
X2925013Y3793032D01*
X2936240Y3800754D01*
X2946400Y3809898D01*
X2955188Y3820312D01*
X2962503Y3831793D01*
X2968244Y3844188D01*
X2972308Y3857193D01*
X2974543Y3870655D01*
X2975000Y3884269D01*
X2973679Y3897833D01*
X2970479Y3911092D01*
X2965602Y3923842D01*
X2959049Y3935780D01*
X2950972Y3946753D01*
X2941472Y3956558D01*
X2930753Y3965041D01*
X2919018Y3972001D01*
X2906471Y3977284D01*
X2893314Y3980891D01*
X2879801Y3982720D01*
X2866186Y3982720D01*
X2852674Y3980891D01*
X2839516Y3977284D01*
X2826969Y3972001D01*
X2815234Y3965041D01*
X2804515Y3956558D01*
X2795016Y3946753D01*
X2786938Y3935780D01*
X2780385Y3923842D01*
X2775508Y3911092D01*
X2772308Y3897833D01*
X2770987Y3884269D01*
X2771444Y3870655D01*
X2773680Y3857193D01*
X2777744Y3844188D01*
X2783484Y3831793D01*
X2790799Y3820312D01*
X2799588Y3809898D01*
X2809748Y3800754D01*
X2820974Y3793032D01*
X2833116Y3786886D01*
X2846019Y3782415D01*
X2859379Y3779672D01*
G37*
G36*
X5872988Y3778758D02*
G01*
X5886602Y3779672D01*
X5899962Y3782415D01*
X5912866Y3786886D01*
X5925007Y3793032D01*
X5936234Y3800754D01*
X5946394Y3809898D01*
X5955182Y3820312D01*
X5962497Y3831793D01*
X5968238Y3844188D01*
X5972302Y3857193D01*
X5974537Y3870655D01*
X5974994Y3884269D01*
X5973673Y3897833D01*
X5970473Y3911092D01*
X5965596Y3923842D01*
X5959043Y3935780D01*
X5950966Y3946753D01*
X5941466Y3956558D01*
X5930747Y3965041D01*
X5919012Y3972001D01*
X5906465Y3977284D01*
X5893308Y3980891D01*
X5879795Y3982720D01*
X5866180Y3982720D01*
X5852668Y3980891D01*
X5839510Y3977284D01*
X5826963Y3972001D01*
X5815228Y3965041D01*
X5804509Y3956558D01*
X5795010Y3946753D01*
X5786932Y3935780D01*
X5780379Y3923842D01*
X5775502Y3911092D01*
X5772302Y3897833D01*
X5770981Y3884269D01*
X5771438Y3870655D01*
X5773674Y3857193D01*
X5777738Y3844188D01*
X5783478Y3831793D01*
X5790793Y3820312D01*
X5799582Y3809898D01*
X5809742Y3800754D01*
X5820968Y3793032D01*
X5833110Y3786886D01*
X5846013Y3782415D01*
X5859373Y3779672D01*
G37*
G36*
X3126994Y3778758D02*
G01*
X3140608Y3779672D01*
X3153968Y3782415D01*
X3166872Y3786886D01*
X3179013Y3793032D01*
X3190240Y3800754D01*
X3200400Y3809898D01*
X3209188Y3820312D01*
X3216503Y3831793D01*
X3222244Y3844188D01*
X3226308Y3857193D01*
X3228543Y3870655D01*
X3229000Y3884269D01*
X3227679Y3897833D01*
X3224479Y3911092D01*
X3219602Y3923842D01*
X3213049Y3935780D01*
X3204972Y3946753D01*
X3195472Y3956558D01*
X3184753Y3965041D01*
X3173018Y3972001D01*
X3160471Y3977284D01*
X3147314Y3980891D01*
X3133801Y3982720D01*
X3120186Y3982720D01*
X3106674Y3980891D01*
X3093516Y3977284D01*
X3080969Y3972001D01*
X3069234Y3965041D01*
X3058515Y3956558D01*
X3049016Y3946753D01*
X3040938Y3935780D01*
X3034385Y3923842D01*
X3029508Y3911092D01*
X3026308Y3897833D01*
X3024987Y3884269D01*
X3025444Y3870655D01*
X3027680Y3857193D01*
X3031744Y3844188D01*
X3037484Y3831793D01*
X3044799Y3820312D01*
X3053588Y3809898D01*
X3063748Y3800754D01*
X3074974Y3793032D01*
X3087116Y3786886D01*
X3100019Y3782415D01*
X3113379Y3779672D01*
G37*
G36*
X8126984Y3778758D02*
G01*
X8140598Y3779672D01*
X8153958Y3782415D01*
X8166862Y3786886D01*
X8179003Y3793032D01*
X8190230Y3800754D01*
X8200390Y3809898D01*
X8209178Y3820312D01*
X8216493Y3831793D01*
X8222234Y3844188D01*
X8226298Y3857193D01*
X8228533Y3870655D01*
X8228990Y3884269D01*
X8227669Y3897833D01*
X8224469Y3911092D01*
X8219592Y3923842D01*
X8213039Y3935780D01*
X8204962Y3946753D01*
X8195462Y3956558D01*
X8184743Y3965041D01*
X8173008Y3972001D01*
X8160461Y3977284D01*
X8147303Y3980891D01*
X8133791Y3982720D01*
X8120176Y3982720D01*
X8106664Y3980891D01*
X8093506Y3977284D01*
X8080959Y3972001D01*
X8069224Y3965041D01*
X8058505Y3956558D01*
X8049006Y3946753D01*
X8040928Y3935780D01*
X8034375Y3923842D01*
X8029498Y3911092D01*
X8026298Y3897833D01*
X8024977Y3884269D01*
X8025434Y3870655D01*
X8027670Y3857193D01*
X8031734Y3844188D01*
X8037474Y3831793D01*
X8044789Y3820312D01*
X8053578Y3809898D01*
X8063738Y3800754D01*
X8074964Y3793032D01*
X8087106Y3786886D01*
X8100009Y3782415D01*
X8113369Y3779672D01*
G37*
G36*
X2126996Y3778758D02*
G01*
X2140610Y3779672D01*
X2153970Y3782415D01*
X2166874Y3786886D01*
X2179015Y3793032D01*
X2190242Y3800754D01*
X2200402Y3809898D01*
X2209190Y3820312D01*
X2216505Y3831793D01*
X2222246Y3844188D01*
X2226310Y3857193D01*
X2228545Y3870655D01*
X2229002Y3884269D01*
X2227681Y3897833D01*
X2224481Y3911092D01*
X2219604Y3923842D01*
X2213051Y3935780D01*
X2204974Y3946753D01*
X2195474Y3956558D01*
X2184755Y3965041D01*
X2173020Y3972001D01*
X2160473Y3977284D01*
X2147316Y3980891D01*
X2133803Y3982720D01*
X2120188Y3982720D01*
X2106676Y3980891D01*
X2093518Y3977284D01*
X2080971Y3972001D01*
X2069236Y3965041D01*
X2058517Y3956558D01*
X2049018Y3946753D01*
X2040940Y3935780D01*
X2034387Y3923842D01*
X2029510Y3911092D01*
X2026310Y3897833D01*
X2024989Y3884269D01*
X2025446Y3870655D01*
X2027682Y3857193D01*
X2031746Y3844188D01*
X2037486Y3831793D01*
X2044801Y3820312D01*
X2053589Y3809898D01*
X2063750Y3800754D01*
X2074976Y3793032D01*
X2087118Y3786886D01*
X2100021Y3782415D01*
X2113381Y3779672D01*
G37*
G36*
X9126982Y3778758D02*
G01*
X9140596Y3779672D01*
X9153956Y3782415D01*
X9166860Y3786886D01*
X9179001Y3793032D01*
X9190228Y3800754D01*
X9200388Y3809898D01*
X9209176Y3820312D01*
X9216491Y3831793D01*
X9222232Y3844188D01*
X9226296Y3857193D01*
X9228531Y3870655D01*
X9228988Y3884269D01*
X9227667Y3897833D01*
X9224467Y3911092D01*
X9219590Y3923842D01*
X9213037Y3935780D01*
X9204960Y3946753D01*
X9195460Y3956558D01*
X9184741Y3965041D01*
X9173006Y3972001D01*
X9160459Y3977284D01*
X9147302Y3980891D01*
X9133789Y3982720D01*
X9120174Y3982720D01*
X9106662Y3980891D01*
X9093504Y3977284D01*
X9080957Y3972001D01*
X9069222Y3965041D01*
X9058503Y3956558D01*
X9049004Y3946753D01*
X9040926Y3935780D01*
X9034373Y3923842D01*
X9029496Y3911092D01*
X9026296Y3897833D01*
X9024975Y3884269D01*
X9025432Y3870655D01*
X9027668Y3857193D01*
X9031732Y3844188D01*
X9037472Y3831793D01*
X9044787Y3820312D01*
X9053576Y3809898D01*
X9063736Y3800754D01*
X9074962Y3793032D01*
X9087104Y3786886D01*
X9100007Y3782415D01*
X9113367Y3779672D01*
G37*
G36*
X7126986Y3778758D02*
G01*
X7140600Y3779672D01*
X7153960Y3782415D01*
X7166864Y3786886D01*
X7179005Y3793032D01*
X7190231Y3800754D01*
X7200392Y3809898D01*
X7209180Y3820312D01*
X7216495Y3831793D01*
X7222236Y3844188D01*
X7226300Y3857193D01*
X7228535Y3870655D01*
X7228992Y3884269D01*
X7227671Y3897833D01*
X7224471Y3911092D01*
X7219594Y3923842D01*
X7213041Y3935780D01*
X7204964Y3946753D01*
X7195464Y3956558D01*
X7184745Y3965041D01*
X7173010Y3972001D01*
X7160463Y3977284D01*
X7147306Y3980891D01*
X7133793Y3982720D01*
X7120178Y3982720D01*
X7106666Y3980891D01*
X7093508Y3977284D01*
X7080961Y3972001D01*
X7069226Y3965041D01*
X7058507Y3956558D01*
X7049008Y3946753D01*
X7040930Y3935780D01*
X7034377Y3923842D01*
X7029500Y3911092D01*
X7026300Y3897833D01*
X7024979Y3884269D01*
X7025436Y3870655D01*
X7027672Y3857193D01*
X7031736Y3844188D01*
X7037476Y3831793D01*
X7044791Y3820312D01*
X7053580Y3809898D01*
X7063740Y3800754D01*
X7074966Y3793032D01*
X7087108Y3786886D01*
X7100011Y3782415D01*
X7113371Y3779672D01*
G37*
G36*
X6126988Y3778758D02*
G01*
X6140602Y3779672D01*
X6153962Y3782415D01*
X6166866Y3786886D01*
X6179007Y3793032D01*
X6190234Y3800754D01*
X6200394Y3809898D01*
X6209182Y3820312D01*
X6216497Y3831793D01*
X6222238Y3844188D01*
X6226302Y3857193D01*
X6228537Y3870655D01*
X6228994Y3884269D01*
X6227673Y3897833D01*
X6224473Y3911092D01*
X6219596Y3923842D01*
X6213043Y3935780D01*
X6204966Y3946753D01*
X6195466Y3956558D01*
X6184747Y3965041D01*
X6173012Y3972001D01*
X6160465Y3977284D01*
X6147308Y3980891D01*
X6133795Y3982720D01*
X6120180Y3982720D01*
X6106668Y3980891D01*
X6093510Y3977284D01*
X6080963Y3972001D01*
X6069228Y3965041D01*
X6058509Y3956558D01*
X6049010Y3946753D01*
X6040932Y3935780D01*
X6034379Y3923842D01*
X6029502Y3911092D01*
X6026302Y3897833D01*
X6024981Y3884269D01*
X6025438Y3870655D01*
X6027674Y3857193D01*
X6031738Y3844188D01*
X6037478Y3831793D01*
X6044793Y3820312D01*
X6053582Y3809898D01*
X6063742Y3800754D01*
X6074968Y3793032D01*
X6087110Y3786886D01*
X6100013Y3782415D01*
X6113373Y3779672D01*
G37*
G36*
X8872982Y3778758D02*
G01*
X8886596Y3779672D01*
X8899956Y3782415D01*
X8912860Y3786886D01*
X8925001Y3793032D01*
X8936228Y3800754D01*
X8946388Y3809898D01*
X8955176Y3820312D01*
X8962491Y3831793D01*
X8968232Y3844188D01*
X8972296Y3857193D01*
X8974531Y3870655D01*
X8974988Y3884269D01*
X8973667Y3897833D01*
X8970467Y3911092D01*
X8965590Y3923842D01*
X8959037Y3935780D01*
X8950960Y3946753D01*
X8941460Y3956558D01*
X8930741Y3965041D01*
X8919006Y3972001D01*
X8906459Y3977284D01*
X8893302Y3980891D01*
X8879789Y3982720D01*
X8866174Y3982720D01*
X8852662Y3980891D01*
X8839504Y3977284D01*
X8826957Y3972001D01*
X8815222Y3965041D01*
X8804503Y3956558D01*
X8795004Y3946753D01*
X8786926Y3935780D01*
X8780373Y3923842D01*
X8775496Y3911092D01*
X8772296Y3897833D01*
X8770975Y3884269D01*
X8771432Y3870655D01*
X8773668Y3857193D01*
X8777732Y3844188D01*
X8783472Y3831793D01*
X8790787Y3820312D01*
X8799576Y3809898D01*
X8809736Y3800754D01*
X8820962Y3793032D01*
X8833104Y3786886D01*
X8846007Y3782415D01*
X8859367Y3779672D01*
G37*
G36*
X1872996Y3778758D02*
G01*
X1886610Y3779672D01*
X1899970Y3782415D01*
X1912874Y3786886D01*
X1925015Y3793032D01*
X1936242Y3800754D01*
X1946402Y3809898D01*
X1955190Y3820312D01*
X1962505Y3831793D01*
X1968246Y3844188D01*
X1972310Y3857193D01*
X1974545Y3870655D01*
X1975002Y3884269D01*
X1973681Y3897833D01*
X1970481Y3911092D01*
X1965604Y3923842D01*
X1959051Y3935780D01*
X1950974Y3946753D01*
X1941474Y3956558D01*
X1930755Y3965041D01*
X1919020Y3972001D01*
X1906473Y3977284D01*
X1893316Y3980891D01*
X1879803Y3982720D01*
X1866188Y3982720D01*
X1852675Y3980891D01*
X1839518Y3977284D01*
X1826971Y3972001D01*
X1815236Y3965041D01*
X1804517Y3956558D01*
X1795018Y3946753D01*
X1786940Y3935780D01*
X1780387Y3923842D01*
X1775510Y3911092D01*
X1772310Y3897833D01*
X1770989Y3884269D01*
X1771446Y3870655D01*
X1773682Y3857193D01*
X1777746Y3844188D01*
X1783486Y3831793D01*
X1790801Y3820312D01*
X1799589Y3809898D01*
X1809750Y3800754D01*
X1820976Y3793032D01*
X1833118Y3786886D01*
X1846021Y3782415D01*
X1859381Y3779672D01*
G37*
G36*
X1126998Y3778758D02*
G01*
X1140612Y3779672D01*
X1153972Y3782415D01*
X1166876Y3786886D01*
X1179017Y3793032D01*
X1190244Y3800754D01*
X1200404Y3809898D01*
X1209192Y3820312D01*
X1216507Y3831793D01*
X1222248Y3844188D01*
X1226312Y3857193D01*
X1228547Y3870655D01*
X1229004Y3884269D01*
X1227683Y3897833D01*
X1224483Y3911092D01*
X1219606Y3923842D01*
X1213053Y3935780D01*
X1204976Y3946753D01*
X1195476Y3956558D01*
X1184757Y3965041D01*
X1173022Y3972001D01*
X1160475Y3977284D01*
X1147318Y3980891D01*
X1133805Y3982720D01*
X1120190Y3982720D01*
X1106678Y3980891D01*
X1093520Y3977284D01*
X1080973Y3972001D01*
X1069238Y3965041D01*
X1058519Y3956558D01*
X1049020Y3946753D01*
X1040942Y3935780D01*
X1034389Y3923842D01*
X1029512Y3911092D01*
X1026312Y3897833D01*
X1024991Y3884269D01*
X1025448Y3870655D01*
X1027684Y3857193D01*
X1031748Y3844188D01*
X1037488Y3831793D01*
X1044803Y3820312D01*
X1053592Y3809898D01*
X1063752Y3800754D01*
X1074978Y3793032D01*
X1087120Y3786886D01*
X1100023Y3782415D01*
X1113383Y3779672D01*
G37*
G36*
X7872984Y3778758D02*
G01*
X7886598Y3779672D01*
X7899958Y3782415D01*
X7912862Y3786886D01*
X7925003Y3793032D01*
X7936230Y3800754D01*
X7946390Y3809898D01*
X7955178Y3820312D01*
X7962493Y3831793D01*
X7968234Y3844188D01*
X7972298Y3857193D01*
X7974533Y3870655D01*
X7974990Y3884269D01*
X7973669Y3897833D01*
X7970469Y3911092D01*
X7965592Y3923842D01*
X7959039Y3935780D01*
X7950860Y3946855D01*
X7949387Y3949700D01*
X7948879Y3952900D01*
X7948828Y9629648D01*
X7948015Y9638487D01*
X7947609Y9640925D01*
X7945475Y9649510D01*
X7944713Y9651847D01*
X7941309Y9660077D01*
X7940192Y9662261D01*
X7934147Y9671913D01*
X7928508Y9678771D01*
X7803845Y9803434D01*
X7797190Y9809429D01*
X7795209Y9810953D01*
X7787792Y9815830D01*
X7777530Y9820706D01*
X7775244Y9821570D01*
X7766710Y9824008D01*
X7764272Y9824516D01*
X7755483Y9825685D01*
X7753045Y9825837D01*
X7741666Y9825431D01*
X7732928Y9823958D01*
X7730540Y9823348D01*
X7719822Y9819640D01*
X7711897Y9815626D01*
X7709763Y9814356D01*
X7702499Y9809226D01*
X7700619Y9807651D01*
X7694218Y9801453D01*
X7692593Y9799624D01*
X7687157Y9792563D01*
X7685836Y9790531D01*
X7681518Y9782759D01*
X7680502Y9780524D01*
X7677403Y9772192D01*
X7674914Y9761118D01*
X7674609Y9758680D01*
X7674102Y9749790D01*
X7674152Y9747351D01*
X7674965Y9738461D01*
X7675372Y9736074D01*
X7677505Y9727438D01*
X7678267Y9725101D01*
X7681671Y9716871D01*
X7682788Y9714687D01*
X7687360Y9707067D01*
X7688783Y9705035D01*
X7694472Y9698228D01*
X7794091Y9598507D01*
X7796326Y9595205D01*
X7797088Y9591344D01*
X7797088Y3952900D01*
X7796580Y3949700D01*
X7795107Y3946855D01*
X7786928Y3935780D01*
X7780375Y3923842D01*
X7775498Y3911092D01*
X7772298Y3897833D01*
X7770977Y3884269D01*
X7771434Y3870655D01*
X7773670Y3857193D01*
X7777734Y3844188D01*
X7783474Y3831793D01*
X7790789Y3820312D01*
X7799578Y3809898D01*
X7809738Y3800754D01*
X7820964Y3793032D01*
X7833106Y3786886D01*
X7846009Y3782415D01*
X7859369Y3779672D01*
G37*
G36*
X872998Y3778758D02*
G01*
X886612Y3779672D01*
X899972Y3782415D01*
X912876Y3786886D01*
X925017Y3793032D01*
X936244Y3800754D01*
X946403Y3809898D01*
X955192Y3820312D01*
X962507Y3831793D01*
X968248Y3844188D01*
X972312Y3857193D01*
X974547Y3870655D01*
X975004Y3884269D01*
X973683Y3897833D01*
X970483Y3911092D01*
X965606Y3923842D01*
X959053Y3935780D01*
X950976Y3946753D01*
X941476Y3956558D01*
X930757Y3965041D01*
X928878Y3966159D01*
X926236Y3968394D01*
X924509Y3971442D01*
X923899Y3974896D01*
X923899Y6347815D01*
X924661Y6351727D01*
X926896Y6354978D01*
X1503019Y6931101D01*
X1506270Y6933336D01*
X1510182Y6934098D01*
X1917395Y6934098D01*
X1920849Y6933488D01*
X1923897Y6931710D01*
X1926183Y6929018D01*
X1932076Y6918807D01*
X1940966Y6907022D01*
X1951228Y6896404D01*
X1962759Y6887159D01*
X1975307Y6879386D01*
X1988718Y6873240D01*
X2002739Y6868769D01*
X2017268Y6866026D01*
X2032000Y6865112D01*
X2046732Y6866026D01*
X2061260Y6868769D01*
X2075281Y6873240D01*
X2088692Y6879386D01*
X2101240Y6887159D01*
X2112772Y6896404D01*
X2123033Y6907022D01*
X2131923Y6918807D01*
X2139289Y6931558D01*
X2145030Y6945172D01*
X2149094Y6959346D01*
X2151380Y6973925D01*
X2151786Y6988708D01*
X2150465Y7003389D01*
X2147316Y7017816D01*
X2142388Y7031736D01*
X2135784Y7044944D01*
X2127656Y7057237D01*
X2118055Y7068464D01*
X2107133Y7078370D01*
X2095093Y7086904D01*
X2082088Y7093915D01*
X2068322Y7099249D01*
X2054047Y7102805D01*
X2039366Y7104634D01*
X2024634Y7104634D01*
X2009952Y7102805D01*
X1995678Y7099249D01*
X1981911Y7093915D01*
X1968906Y7086904D01*
X1956866Y7078370D01*
X1945944Y7068464D01*
X1936343Y7057237D01*
X1928215Y7044944D01*
X1926488Y7041540D01*
X1924253Y7038543D01*
X1921052Y7036612D01*
X1917395Y7035901D01*
X1485087Y7035901D01*
X1480464Y7035698D01*
X1476044Y7035139D01*
X1471726Y7034174D01*
X1467459Y7032853D01*
X1463395Y7031126D01*
X1459433Y7029094D01*
X1455674Y7026706D01*
X1452168Y7024014D01*
X1448714Y7020864D01*
X837133Y6409283D01*
X833983Y6405829D01*
X831291Y6402324D01*
X828903Y6398564D01*
X826871Y6394602D01*
X825144Y6390538D01*
X823823Y6386271D01*
X822858Y6381953D01*
X822299Y6377533D01*
X822096Y6372910D01*
X822096Y3974896D01*
X821486Y3971442D01*
X819759Y3968394D01*
X817118Y3966159D01*
X815238Y3965041D01*
X804519Y3956558D01*
X795020Y3946753D01*
X786942Y3935780D01*
X780389Y3923842D01*
X775512Y3911092D01*
X772312Y3897833D01*
X770991Y3884269D01*
X771448Y3870655D01*
X773684Y3857193D01*
X777748Y3844188D01*
X783488Y3831793D01*
X790803Y3820312D01*
X799592Y3809898D01*
X809752Y3800754D01*
X820978Y3793032D01*
X833119Y3786886D01*
X846023Y3782415D01*
X859383Y3779672D01*
G37*
G36*
X3872992Y3778758D02*
G01*
X3886606Y3779672D01*
X3899966Y3782415D01*
X3912870Y3786886D01*
X3925011Y3793032D01*
X3936237Y3800754D01*
X3938015Y3802329D01*
X3941165Y3804310D01*
X3944823Y3804970D01*
X4055160Y3804970D01*
X4058767Y3804310D01*
X4061968Y3802329D01*
X4063746Y3800754D01*
X4074972Y3793032D01*
X4087114Y3786886D01*
X4100017Y3782415D01*
X4113377Y3779672D01*
X4126992Y3778758D01*
X4140606Y3779672D01*
X4153966Y3782415D01*
X4166870Y3786886D01*
X4179011Y3793032D01*
X4190237Y3800754D01*
X4192066Y3802379D01*
X4195216Y3804310D01*
X4198874Y3804970D01*
X5266334Y3805123D01*
X5275173Y3805986D01*
X5277612Y3806393D01*
X5286197Y3808526D01*
X5288584Y3809288D01*
X5296763Y3812692D01*
X5298948Y3813810D01*
X5306568Y3818382D01*
X5308600Y3819804D01*
X5315407Y3825494D01*
X6553403Y5064150D01*
X6561023Y5073040D01*
X6567068Y5082641D01*
X6571589Y5093055D01*
X6574536Y5104028D01*
X6575806Y5115306D01*
X6575399Y5126634D01*
X6574383Y5131968D01*
X6574434Y5136134D01*
X6575044Y5138674D01*
X6575907Y5150358D01*
X6575907Y8599779D01*
X6575704Y8605570D01*
X6574536Y8614105D01*
X6572503Y8622436D01*
X6570675Y8627618D01*
X6567068Y8635441D01*
X6562648Y8642807D01*
X6559397Y8647226D01*
X6553454Y8653881D01*
X6404762Y8802471D01*
X6397904Y8808161D01*
X6395923Y8809583D01*
X6388303Y8814155D01*
X6386068Y8815273D01*
X6377889Y8818676D01*
X6375552Y8819438D01*
X6364478Y8822029D01*
X6355638Y8822842D01*
X6300368Y8822893D01*
X6288684Y8822029D01*
X6277610Y8819489D01*
X6267043Y8815324D01*
X6257239Y8809685D01*
X6248400Y8802624D01*
X6240678Y8794292D01*
X6234277Y8784945D01*
X6229350Y8774684D01*
X6225997Y8763863D01*
X6224320Y8752636D01*
X6224320Y8741308D01*
X6225997Y8730081D01*
X6229350Y8719261D01*
X6234277Y8709050D01*
X6240678Y8699652D01*
X6248400Y8691372D01*
X6257239Y8684310D01*
X6267043Y8678621D01*
X6277610Y8674455D01*
X6288684Y8671966D01*
X6300368Y8671052D01*
X6317335Y8671052D01*
X6321247Y8670290D01*
X6324498Y8668105D01*
X6421120Y8571534D01*
X6423304Y8568232D01*
X6424066Y8564321D01*
X6424066Y5153761D01*
X6423304Y5149850D01*
X6421120Y5146548D01*
X5235143Y3959860D01*
X5231892Y3957675D01*
X5227980Y3956913D01*
X4198721Y3956812D01*
X4195368Y3957370D01*
X4192422Y3958996D01*
X4184751Y3965041D01*
X4173016Y3972001D01*
X4160469Y3977284D01*
X4147312Y3980891D01*
X4133799Y3982720D01*
X4120184Y3982720D01*
X4106672Y3980891D01*
X4093514Y3977284D01*
X4080967Y3972001D01*
X4069232Y3965041D01*
X4061561Y3958996D01*
X4058564Y3957370D01*
X4055262Y3956812D01*
X3944721Y3956761D01*
X3941419Y3957320D01*
X3938422Y3958945D01*
X3930751Y3965041D01*
X3919016Y3972001D01*
X3906469Y3977284D01*
X3893312Y3980891D01*
X3879799Y3982720D01*
X3866184Y3982720D01*
X3852672Y3980891D01*
X3839514Y3977284D01*
X3826967Y3972001D01*
X3815232Y3965041D01*
X3804513Y3956558D01*
X3795014Y3946753D01*
X3786936Y3935780D01*
X3780383Y3923842D01*
X3775506Y3911092D01*
X3772306Y3897833D01*
X3770985Y3884269D01*
X3771442Y3870655D01*
X3773678Y3857193D01*
X3777742Y3844188D01*
X3783482Y3831793D01*
X3790797Y3820312D01*
X3799586Y3809898D01*
X3809746Y3800754D01*
X3820972Y3793032D01*
X3833114Y3786886D01*
X3846017Y3782415D01*
X3859377Y3779672D01*
G37*
G36*
X2540000Y6865112D02*
G01*
X2554732Y6866026D01*
X2569260Y6868769D01*
X2583281Y6873240D01*
X2596692Y6879386D01*
X2609240Y6887159D01*
X2620772Y6896404D01*
X2631033Y6907022D01*
X2639923Y6918807D01*
X2647289Y6931558D01*
X2653030Y6945172D01*
X2657094Y6959346D01*
X2659380Y6973925D01*
X2659786Y6988708D01*
X2658465Y7003389D01*
X2655316Y7017816D01*
X2650388Y7031736D01*
X2643784Y7044944D01*
X2635656Y7057237D01*
X2626055Y7068464D01*
X2615133Y7078370D01*
X2603093Y7086904D01*
X2590088Y7093915D01*
X2576322Y7099249D01*
X2562047Y7102805D01*
X2547366Y7104634D01*
X2532634Y7104634D01*
X2517952Y7102805D01*
X2503678Y7099249D01*
X2489911Y7093915D01*
X2476906Y7086904D01*
X2464866Y7078370D01*
X2453944Y7068464D01*
X2444343Y7057237D01*
X2436215Y7044944D01*
X2429611Y7031736D01*
X2424684Y7017816D01*
X2421534Y7003389D01*
X2420213Y6988708D01*
X2420620Y6973925D01*
X2422906Y6959346D01*
X2426970Y6945172D01*
X2432710Y6931558D01*
X2440076Y6918807D01*
X2448966Y6907022D01*
X2459228Y6896404D01*
X2470759Y6887159D01*
X2483307Y6879386D01*
X2496718Y6873240D01*
X2510739Y6868769D01*
X2525268Y6866026D01*
G37*

%LPD*%
D10*
X7872984Y3880990D02*
G01*
X7872984Y9626980D01*
X7799984Y9699980D01*
X7749989Y9749975D01*
X7749989Y9749977D01*
X3872991Y3880865D02*
G01*
X5263649Y3880993D01*
X6499981Y5118100D01*
D11*
X872997Y3880865D02*
G01*
X872997Y6373113D01*
X1484884Y6985000D01*
X2032000Y6985000D01*
X3399993Y3626993D02*
G01*
X3399993Y9599980D01*
X3599992Y9399981D02*
G01*
X3599992Y3372993D01*
D10*
X6499986Y8599982D02*
G01*
X6499986Y8599982D01*
X6499986Y5149989D01*
X6299987Y8746982D02*
G01*
X6352987Y8746982D01*
X6413520Y8686449D01*
X6413520Y8686449D02*
G01*
X6499986Y8599982D01*
D12*
G01*
X872997Y3880865D03*
G01*
X1126997Y3880865D03*
G01*
X872997Y3626865D03*
G01*
X1126997Y3626865D03*
G01*
X872997Y3372865D03*
G01*
X1126997Y3372865D03*
G01*
X872997Y3118865D03*
G01*
X1126997Y3118865D03*
G01*
X1872995Y3880865D03*
G01*
X2126995Y3880865D03*
G01*
X1872995Y3626865D03*
G01*
X2126995Y3626865D03*
G01*
X1872995Y3372865D03*
G01*
X2126995Y3372865D03*
G01*
X1872995Y3118865D03*
G01*
X2126995Y3118865D03*
G01*
X2872993Y3880865D03*
G01*
X3126993Y3880865D03*
G01*
X2872993Y3626865D03*
G01*
X3126993Y3626865D03*
G01*
X2872993Y3372865D03*
G01*
X3126993Y3372865D03*
G01*
X2872993Y3118865D03*
G01*
X3126993Y3118865D03*
G01*
X3872991Y3880865D03*
G01*
X4126991Y3880865D03*
G01*
X3872991Y3626865D03*
G01*
X4126991Y3626865D03*
G01*
X3872991Y3372865D03*
G01*
X4126991Y3372865D03*
G01*
X3872991Y3118865D03*
G01*
X4126991Y3118865D03*
G01*
X5872988Y3880865D03*
G01*
X6126988Y3880865D03*
G01*
X5872988Y3626865D03*
G01*
X6126988Y3626865D03*
G01*
X5872988Y3372865D03*
G01*
X6126988Y3372865D03*
G01*
X5872988Y3118865D03*
G01*
X6126988Y3118865D03*
G01*
X6872986Y3880865D03*
G01*
X7126986Y3880865D03*
G01*
X6872986Y3626865D03*
G01*
X7126986Y3626865D03*
G01*
X6872986Y3372865D03*
G01*
X7126986Y3372865D03*
G01*
X6872986Y3118865D03*
G01*
X7126986Y3118865D03*
G01*
X7872984Y3880865D03*
G01*
X8126984Y3880865D03*
G01*
X7872984Y3626865D03*
G01*
X8126984Y3626865D03*
G01*
X7872984Y3372865D03*
G01*
X8126984Y3372865D03*
G01*
X7872984Y3118865D03*
G01*
X8126984Y3118865D03*
G01*
X8872981Y3880865D03*
G01*
X9126981Y3880865D03*
G01*
X8872981Y3626865D03*
G01*
X9126981Y3626865D03*
G01*
X8872981Y3372865D03*
G01*
X9126981Y3372865D03*
G01*
X8872981Y3118865D03*
G01*
X9126981Y3118865D03*
D13*
G01*
X2032000Y8255000D03*
G01*
X2032000Y6985000D03*
G01*
X2540000Y8255000D03*
G01*
X2540000Y6985000D03*
D14*
G01*
X3399993Y9599980D03*
G01*
X3399993Y3626993D03*
G01*
X3599992Y9399981D03*
G01*
X3599992Y3372993D03*
G01*
X7749984Y9749980D03*
G01*
X7799984Y9699980D03*
G01*
X7849984Y9649980D03*
G01*
X6299987Y8746982D03*
G01*
X6499986Y8599982D03*
G01*
X6413520Y8686449D03*
D15*
G01*
X107205Y8892794D03*
G01*
X107205Y8392795D03*
G01*
X107205Y7892795D03*
G01*
X107205Y7392796D03*
G01*
X107205Y6892797D03*
G01*
X107205Y6392798D03*
G01*
X107205Y5892800D03*
G01*
X107205Y5392801D03*
G01*
X107205Y4892802D03*
G01*
X107205Y4392803D03*
G01*
X107205Y2892805D03*
G01*
X107205Y2392806D03*
G01*
X107205Y1892807D03*
G01*
X107205Y1392809D03*
G01*
X607204Y8892794D03*
G01*
X607204Y8392795D03*
G01*
X607204Y7892795D03*
G01*
X607204Y7392796D03*
G01*
X607204Y6892797D03*
G01*
X607204Y6392798D03*
G01*
X607204Y5892800D03*
G01*
X607204Y5392801D03*
G01*
X607204Y4892802D03*
G01*
X607204Y4392803D03*
G01*
X607204Y3892804D03*
G01*
X607204Y3392804D03*
G01*
X607204Y2892805D03*
G01*
X607204Y2392806D03*
G01*
X607204Y1892807D03*
G01*
X607204Y1392809D03*
G01*
X1107203Y9892792D03*
G01*
X1107203Y9392793D03*
G01*
X1107203Y8892794D03*
G01*
X1107203Y8392795D03*
G01*
X1107203Y7892795D03*
G01*
X1107203Y7392796D03*
G01*
X1107203Y6892797D03*
G01*
X1107203Y6392798D03*
G01*
X1107203Y5892800D03*
G01*
X1107203Y5392801D03*
G01*
X1107203Y4892802D03*
G01*
X1107203Y4392803D03*
G01*
X1107203Y2892805D03*
G01*
X1107203Y2392806D03*
G01*
X1107203Y1892807D03*
G01*
X1107203Y1392809D03*
G01*
X1107203Y892810D03*
G01*
X1107203Y392811D03*
G01*
X1607202Y9892792D03*
G01*
X1607202Y9392793D03*
G01*
X1607202Y8892794D03*
G01*
X1607202Y8392795D03*
G01*
X1607202Y7892795D03*
G01*
X1607202Y7392796D03*
G01*
X1607202Y6892797D03*
G01*
X1607202Y6392798D03*
G01*
X1607202Y5892800D03*
G01*
X1607202Y5392801D03*
G01*
X1607202Y4892802D03*
G01*
X1607202Y4392803D03*
G01*
X1607202Y2892805D03*
G01*
X1607202Y2392806D03*
G01*
X1607202Y1892807D03*
G01*
X1607202Y1392809D03*
G01*
X1607202Y892810D03*
G01*
X1607202Y392811D03*
G01*
X2107201Y9892792D03*
G01*
X2107201Y9392793D03*
G01*
X2107201Y8892794D03*
G01*
X2107201Y7892795D03*
G01*
X2107201Y7392796D03*
G01*
X2107201Y6392798D03*
G01*
X2107201Y5892800D03*
G01*
X2107201Y5392801D03*
G01*
X2107201Y4892802D03*
G01*
X2107201Y4392803D03*
G01*
X2107201Y2892805D03*
G01*
X2107201Y2392806D03*
G01*
X2107201Y1892807D03*
G01*
X2107201Y1392809D03*
G01*
X2107201Y892810D03*
G01*
X2107201Y392811D03*
G01*
X2607200Y9892792D03*
G01*
X2607200Y9392793D03*
G01*
X2607200Y7892795D03*
G01*
X2607200Y7392796D03*
G01*
X2607200Y6392798D03*
G01*
X2607200Y5892800D03*
G01*
X2607200Y5392801D03*
G01*
X2607200Y4892802D03*
G01*
X2607200Y4392803D03*
G01*
X2607200Y2892805D03*
G01*
X2607200Y2392806D03*
G01*
X2607200Y1892807D03*
G01*
X2607200Y1392809D03*
G01*
X2607200Y892810D03*
G01*
X2607200Y392811D03*
G01*
X3107199Y9892792D03*
G01*
X3107199Y8392795D03*
G01*
X3107199Y7892795D03*
G01*
X3107199Y7392796D03*
G01*
X3107199Y6892797D03*
G01*
X3107199Y6392798D03*
G01*
X3107199Y5892800D03*
G01*
X3107199Y5392801D03*
G01*
X3107199Y4892802D03*
G01*
X3107199Y4392803D03*
G01*
X3107199Y2892805D03*
G01*
X3107199Y2392806D03*
G01*
X3107199Y1892807D03*
G01*
X3107199Y1392809D03*
G01*
X3107199Y892810D03*
G01*
X3107199Y392811D03*
G01*
X3607198Y9892792D03*
G01*
X3607198Y2892805D03*
G01*
X3607198Y2392806D03*
G01*
X4107197Y4392803D03*
G01*
X4107197Y2892805D03*
G01*
X4107197Y2392806D03*
G01*
X4607196Y4392803D03*
G01*
X4607196Y2892805D03*
G01*
X4607196Y2392806D03*
G01*
X5107195Y4392803D03*
G01*
X5107195Y2892805D03*
G01*
X5107195Y2392806D03*
G01*
X5607194Y4392803D03*
G01*
X5607194Y3892804D03*
G01*
X5607194Y2892805D03*
G01*
X5607194Y2392806D03*
G01*
X5607194Y1392809D03*
G01*
X6107193Y4392803D03*
G01*
X6107193Y2892805D03*
G01*
X6107193Y2392806D03*
G01*
X6107193Y1392809D03*
G01*
X6607192Y9392793D03*
G01*
X6607192Y8892794D03*
G01*
X6607192Y8392795D03*
G01*
X6607192Y7892795D03*
G01*
X6607192Y7392796D03*
G01*
X6607192Y6892797D03*
G01*
X6607192Y6392798D03*
G01*
X6607192Y5892800D03*
G01*
X6607192Y5392801D03*
G01*
X6607192Y4892802D03*
G01*
X6607192Y4392803D03*
G01*
X6607192Y2892805D03*
G01*
X6607192Y2392806D03*
G01*
X6607192Y1392809D03*
G01*
X7107191Y9392793D03*
G01*
X7107191Y8892794D03*
G01*
X7107191Y8392795D03*
G01*
X7107191Y7892795D03*
G01*
X7107191Y7392796D03*
G01*
X7107191Y6892797D03*
G01*
X7107191Y6392798D03*
G01*
X7107191Y5892800D03*
G01*
X7107191Y5392801D03*
G01*
X7107191Y4892802D03*
G01*
X7107191Y4392803D03*
G01*
X7107191Y2892805D03*
G01*
X7107191Y2392806D03*
G01*
X7107191Y1392809D03*
G01*
X7107191Y892810D03*
G01*
X7107191Y392811D03*
G01*
X7607190Y9392793D03*
G01*
X7607190Y8892794D03*
G01*
X7607190Y8392795D03*
G01*
X7607190Y7892795D03*
G01*
X7607190Y7392796D03*
G01*
X7607190Y6892797D03*
G01*
X7607190Y6392798D03*
G01*
X7607190Y5892800D03*
G01*
X7607190Y5392801D03*
G01*
X7607190Y4892802D03*
G01*
X7607190Y4392803D03*
G01*
X7607190Y2892805D03*
G01*
X7607190Y2392806D03*
G01*
X7607190Y1392809D03*
G01*
X7607190Y892810D03*
G01*
X7607190Y392811D03*
G01*
X8107189Y9892792D03*
G01*
X8107189Y9392793D03*
G01*
X8107189Y8892794D03*
G01*
X8107189Y8392795D03*
G01*
X8107189Y7892795D03*
G01*
X8107189Y7392796D03*
G01*
X8107189Y6892797D03*
G01*
X8107189Y6392798D03*
G01*
X8107189Y5892800D03*
G01*
X8107189Y5392801D03*
G01*
X8107189Y4892802D03*
G01*
X8107189Y4392803D03*
G01*
X8107189Y2892805D03*
G01*
X8107189Y2392806D03*
G01*
X8107189Y1892807D03*
G01*
X8107189Y1392809D03*
G01*
X8107189Y892810D03*
G01*
X8107189Y392811D03*
G01*
X8607188Y9892792D03*
G01*
X8607188Y9392793D03*
G01*
X8607188Y8892794D03*
G01*
X8607188Y8392795D03*
G01*
X8607188Y7892795D03*
G01*
X8607188Y7392796D03*
G01*
X8607188Y6892797D03*
G01*
X8607188Y6392798D03*
G01*
X8607188Y5892800D03*
G01*
X8607188Y5392801D03*
G01*
X8607188Y4892802D03*
G01*
X8607188Y4392803D03*
G01*
X8607188Y2892805D03*
G01*
X8607188Y2392806D03*
G01*
X8607188Y1892807D03*
G01*
X8607188Y1392809D03*
G01*
X8607188Y892810D03*
G01*
X8607188Y392811D03*
G01*
X9107187Y8892794D03*
G01*
X9107187Y8392795D03*
G01*
X9107187Y7892795D03*
G01*
X9107187Y7392796D03*
G01*
X9107187Y6892797D03*
G01*
X9107187Y6392798D03*
G01*
X9107187Y5892800D03*
G01*
X9107187Y5392801D03*
G01*
X9107187Y4892802D03*
G01*
X9107187Y4392803D03*
G01*
X9107187Y2892805D03*
G01*
X9107187Y2392806D03*
G01*
X9107187Y1892807D03*
G01*
X9107187Y1392809D03*
G01*
X9607186Y8892794D03*
G01*
X9607186Y8392795D03*
G01*
X9607186Y7892795D03*
G01*
X9607186Y7392796D03*
G01*
X9607186Y6892797D03*
G01*
X9607186Y6392798D03*
G01*
X9607186Y5892800D03*
G01*
X9607186Y5392801D03*
G01*
X9607186Y4892802D03*
G01*
X9607186Y4392803D03*
G01*
X9607186Y2892805D03*
G01*
X9607186Y2392806D03*
G01*
X9607186Y1892807D03*
G01*
X9607186Y1392809D03*
M02*
