G04 Layer: TopPasteMaskLayer*
G04 EasyEDA v6.5.20, 2023-09-02 21:33:51*
G04 a67cddfb3fce44daa9051d46cbbcc19f,10*
G04 Gerber Generator version 0.2*
G04 Scale: 100 percent, Rotated: No, Reflected: No *
G04 Dimensions in millimeters *
G04 leading zeros omitted , absolute positions ,4 integer and 5 decimal *
%FSLAX45Y45*%
%MOMM*%

%AMMACRO1*4,1,4,-1.5999,-0.8,-1.5999,0.8,1.5999,0.8,1.5999,-0.8,-1.5999,-0.8,0*%
%AMMACRO2*4,1,4,-1.5999,-0.8001,-1.5999,0.8001,1.5999,0.8001,1.5999,-0.8001,-1.5999,-0.8001,0*%
%ADD10MACRO1*%
%ADD11MACRO2*%

%LPD*%
G36*
X5872479Y9682970D02*
G01*
X5862853Y9683554D01*
X5853353Y9685307D01*
X5844108Y9688177D01*
X5835319Y9692139D01*
X5827039Y9697143D01*
X5819444Y9703087D01*
X5812612Y9709919D01*
X5806643Y9717539D01*
X5801639Y9725794D01*
X5797677Y9734608D01*
X5794806Y9743828D01*
X5793079Y9753328D01*
X5792495Y9762980D01*
X5793079Y9772606D01*
X5794806Y9782131D01*
X5797677Y9791352D01*
X5801639Y9800165D01*
X5806643Y9808420D01*
X5812612Y9816015D01*
X5819444Y9822848D01*
X5827039Y9828817D01*
X5835319Y9833820D01*
X5844108Y9837783D01*
X5853353Y9840653D01*
X5862853Y9842380D01*
X5872479Y9842964D01*
X6032500Y9842964D01*
X6042126Y9842380D01*
X6051626Y9840653D01*
X6060846Y9837783D01*
X6069660Y9833820D01*
X6077940Y9828817D01*
X6085535Y9822848D01*
X6092367Y9816015D01*
X6098336Y9808420D01*
X6103315Y9800165D01*
X6107277Y9791352D01*
X6110173Y9782131D01*
X6111900Y9772606D01*
X6112484Y9762980D01*
X6111900Y9753328D01*
X6110173Y9743828D01*
X6107277Y9734608D01*
X6103315Y9725794D01*
X6098336Y9717539D01*
X6092367Y9709919D01*
X6085535Y9703087D01*
X6077940Y9697143D01*
X6069660Y9692139D01*
X6060846Y9688177D01*
X6051626Y9685307D01*
X6042126Y9683554D01*
X6032500Y9682970D01*
G37*
G36*
X5872479Y9428975D02*
G01*
X5862853Y9429559D01*
X5853353Y9431312D01*
X5844108Y9434182D01*
X5835319Y9438144D01*
X5827039Y9443148D01*
X5819444Y9449092D01*
X5812612Y9455924D01*
X5806643Y9463544D01*
X5801639Y9471799D01*
X5797677Y9480613D01*
X5794806Y9489833D01*
X5793079Y9499333D01*
X5792495Y9508985D01*
X5793079Y9518611D01*
X5794806Y9528136D01*
X5797677Y9537357D01*
X5801639Y9546170D01*
X5806643Y9554425D01*
X5812612Y9562020D01*
X5819444Y9568853D01*
X5827039Y9574822D01*
X5835319Y9579825D01*
X5844108Y9583788D01*
X5853353Y9586658D01*
X5862853Y9588385D01*
X5872479Y9588969D01*
X6032500Y9588969D01*
X6042126Y9588385D01*
X6051626Y9586658D01*
X6060846Y9583788D01*
X6069660Y9579825D01*
X6077940Y9574822D01*
X6085535Y9568853D01*
X6092367Y9562020D01*
X6098336Y9554425D01*
X6103315Y9546170D01*
X6107277Y9537357D01*
X6110173Y9528136D01*
X6111900Y9518611D01*
X6112484Y9508985D01*
X6111900Y9499333D01*
X6110173Y9489833D01*
X6107277Y9480613D01*
X6103315Y9471799D01*
X6098336Y9463544D01*
X6092367Y9455924D01*
X6085535Y9449092D01*
X6077940Y9443148D01*
X6069660Y9438144D01*
X6060846Y9434182D01*
X6051626Y9431312D01*
X6042126Y9429559D01*
X6032500Y9428975D01*
G37*
D10*
G01*
X5952490Y9254972D03*
G36*
X5872479Y8920975D02*
G01*
X5862853Y8921559D01*
X5853353Y8923312D01*
X5844108Y8926182D01*
X5835319Y8930144D01*
X5827039Y8935148D01*
X5819444Y8941092D01*
X5812612Y8947924D01*
X5806643Y8955544D01*
X5801639Y8963799D01*
X5797677Y8972613D01*
X5794806Y8981833D01*
X5793079Y8991333D01*
X5792495Y9000985D01*
X5793079Y9010637D01*
X5794806Y9020136D01*
X5797677Y9029357D01*
X5801639Y9038170D01*
X5806643Y9046425D01*
X5812612Y9054020D01*
X5819444Y9060853D01*
X5827039Y9066822D01*
X5835319Y9071825D01*
X5844108Y9075788D01*
X5853353Y9078658D01*
X5862853Y9080411D01*
X5872479Y9080969D01*
X6032500Y9080969D01*
X6042126Y9080411D01*
X6051626Y9078658D01*
X6060846Y9075788D01*
X6069660Y9071825D01*
X6077940Y9066822D01*
X6085535Y9060853D01*
X6092367Y9054020D01*
X6098336Y9046425D01*
X6103315Y9038170D01*
X6107277Y9029357D01*
X6110173Y9020136D01*
X6111900Y9010637D01*
X6112484Y9000985D01*
X6111900Y8991333D01*
X6110173Y8981833D01*
X6107277Y8972613D01*
X6103315Y8963799D01*
X6098336Y8955544D01*
X6092367Y8947924D01*
X6085535Y8941092D01*
X6077940Y8935148D01*
X6069660Y8930144D01*
X6060846Y8926182D01*
X6051626Y8923312D01*
X6042126Y8921559D01*
X6032500Y8920975D01*
G37*
G36*
X5872479Y8666972D02*
G01*
X5862853Y8667556D01*
X5853353Y8669309D01*
X5844108Y8672179D01*
X5835319Y8676142D01*
X5827039Y8681145D01*
X5819444Y8687089D01*
X5812612Y8693922D01*
X5806643Y8701542D01*
X5801639Y8709797D01*
X5797677Y8718610D01*
X5794806Y8727831D01*
X5793079Y8737330D01*
X5792495Y8746982D01*
X5793079Y8756634D01*
X5794806Y8766134D01*
X5797677Y8775354D01*
X5801639Y8784168D01*
X5806643Y8792423D01*
X5812612Y8800017D01*
X5819444Y8806850D01*
X5827039Y8812819D01*
X5835319Y8817823D01*
X5844108Y8821785D01*
X5853353Y8824655D01*
X5862853Y8826408D01*
X5872479Y8826967D01*
X6032500Y8826967D01*
X6042126Y8826408D01*
X6051626Y8824655D01*
X6060846Y8821785D01*
X6069660Y8817823D01*
X6077940Y8812819D01*
X6085535Y8806850D01*
X6092367Y8800017D01*
X6098336Y8792423D01*
X6103315Y8784168D01*
X6107277Y8775354D01*
X6110173Y8766134D01*
X6111900Y8756634D01*
X6112484Y8746982D01*
X6111900Y8737330D01*
X6110173Y8727831D01*
X6107277Y8718610D01*
X6103315Y8709797D01*
X6098336Y8701542D01*
X6092367Y8693922D01*
X6085535Y8687089D01*
X6077940Y8681145D01*
X6069660Y8676142D01*
X6060846Y8672179D01*
X6051626Y8669309D01*
X6042126Y8667556D01*
X6032500Y8666972D01*
G37*
G36*
X5872479Y8412975D02*
G01*
X5862853Y8413559D01*
X5853353Y8415312D01*
X5844108Y8418182D01*
X5835319Y8422144D01*
X5827039Y8427148D01*
X5819444Y8433092D01*
X5812612Y8439924D01*
X5806643Y8447544D01*
X5801639Y8455799D01*
X5797677Y8464613D01*
X5794806Y8473833D01*
X5793079Y8483333D01*
X5792495Y8492985D01*
X5793079Y8502637D01*
X5794806Y8512136D01*
X5797677Y8521357D01*
X5801639Y8530170D01*
X5806643Y8538425D01*
X5812612Y8546020D01*
X5819444Y8552853D01*
X5827039Y8558822D01*
X5835319Y8563825D01*
X5844108Y8567788D01*
X5853353Y8570658D01*
X5862853Y8572411D01*
X5872479Y8572995D01*
X6032500Y8572995D01*
X6042126Y8572411D01*
X6051626Y8570658D01*
X6060846Y8567788D01*
X6069660Y8563825D01*
X6077940Y8558822D01*
X6085535Y8552853D01*
X6092367Y8546020D01*
X6098336Y8538425D01*
X6103315Y8530170D01*
X6107277Y8521357D01*
X6110173Y8512136D01*
X6111900Y8502637D01*
X6112484Y8492985D01*
X6111900Y8483333D01*
X6110173Y8473833D01*
X6107277Y8464613D01*
X6103315Y8455799D01*
X6098336Y8447544D01*
X6092367Y8439924D01*
X6085535Y8433092D01*
X6077940Y8427148D01*
X6069660Y8422144D01*
X6060846Y8418182D01*
X6051626Y8415312D01*
X6042126Y8413559D01*
X6032500Y8412975D01*
G37*
G36*
X5872479Y8158975D02*
G01*
X5862853Y8159559D01*
X5853353Y8161312D01*
X5844108Y8164182D01*
X5835319Y8168144D01*
X5827039Y8173148D01*
X5819444Y8179092D01*
X5812612Y8185924D01*
X5806643Y8193544D01*
X5801639Y8201799D01*
X5797677Y8210613D01*
X5794806Y8219833D01*
X5793079Y8229333D01*
X5792495Y8238985D01*
X5793079Y8248637D01*
X5794806Y8258136D01*
X5797677Y8267357D01*
X5801639Y8276170D01*
X5806643Y8284425D01*
X5812612Y8292045D01*
X5819444Y8298853D01*
X5827039Y8304822D01*
X5835319Y8309825D01*
X5844108Y8313788D01*
X5853353Y8316658D01*
X5862853Y8318411D01*
X5872479Y8318995D01*
X6032500Y8318995D01*
X6042126Y8318411D01*
X6051626Y8316658D01*
X6060846Y8313788D01*
X6069660Y8309825D01*
X6077940Y8304822D01*
X6085535Y8298853D01*
X6092367Y8292045D01*
X6098336Y8284425D01*
X6103315Y8276170D01*
X6107277Y8267357D01*
X6110173Y8258136D01*
X6111900Y8248637D01*
X6112484Y8238985D01*
X6111900Y8229333D01*
X6110173Y8219833D01*
X6107277Y8210613D01*
X6103315Y8201799D01*
X6098336Y8193544D01*
X6092367Y8185924D01*
X6085535Y8179092D01*
X6077940Y8173148D01*
X6069660Y8168144D01*
X6060846Y8164182D01*
X6051626Y8161312D01*
X6042126Y8159559D01*
X6032500Y8158975D01*
G37*
D11*
G01*
X5952490Y7984985D03*
G36*
X5872479Y7650975D02*
G01*
X5862853Y7651559D01*
X5853353Y7653312D01*
X5844108Y7656182D01*
X5835319Y7660144D01*
X5827039Y7665148D01*
X5819444Y7671092D01*
X5812612Y7677924D01*
X5806643Y7685544D01*
X5801639Y7693799D01*
X5797677Y7702613D01*
X5794806Y7711833D01*
X5793079Y7721333D01*
X5792495Y7730985D01*
X5793079Y7740637D01*
X5794806Y7750136D01*
X5797677Y7759357D01*
X5801639Y7768170D01*
X5806643Y7776425D01*
X5812612Y7784045D01*
X5819444Y7790853D01*
X5827039Y7796822D01*
X5835319Y7801825D01*
X5844108Y7805788D01*
X5853353Y7808658D01*
X5862853Y7810411D01*
X5872479Y7810995D01*
X6032500Y7810995D01*
X6042126Y7810411D01*
X6051626Y7808658D01*
X6060846Y7805788D01*
X6069660Y7801825D01*
X6077940Y7796822D01*
X6085535Y7790853D01*
X6092367Y7784045D01*
X6098336Y7776425D01*
X6103315Y7768170D01*
X6107277Y7759357D01*
X6110173Y7750136D01*
X6111900Y7740637D01*
X6112484Y7730985D01*
X6111900Y7721333D01*
X6110173Y7711833D01*
X6107277Y7702613D01*
X6103315Y7693799D01*
X6098336Y7685544D01*
X6092367Y7677924D01*
X6085535Y7671092D01*
X6077940Y7665148D01*
X6069660Y7660144D01*
X6060846Y7656182D01*
X6051626Y7653312D01*
X6042126Y7651559D01*
X6032500Y7650975D01*
G37*
G36*
X5872479Y7396975D02*
G01*
X5862853Y7397559D01*
X5853353Y7399312D01*
X5844108Y7402182D01*
X5835319Y7406144D01*
X5827039Y7411148D01*
X5819444Y7417092D01*
X5812612Y7423924D01*
X5806643Y7431544D01*
X5801639Y7439799D01*
X5797677Y7448613D01*
X5794806Y7457833D01*
X5793079Y7467333D01*
X5792495Y7476985D01*
X5793079Y7486637D01*
X5794806Y7496136D01*
X5797677Y7505357D01*
X5801639Y7514170D01*
X5806643Y7522425D01*
X5812612Y7530045D01*
X5819444Y7536853D01*
X5827039Y7542822D01*
X5835319Y7547825D01*
X5844108Y7551788D01*
X5853353Y7554658D01*
X5862853Y7556411D01*
X5872479Y7556995D01*
X6032500Y7556995D01*
X6042126Y7556411D01*
X6051626Y7554658D01*
X6060846Y7551788D01*
X6069660Y7547825D01*
X6077940Y7542822D01*
X6085535Y7536853D01*
X6092367Y7530045D01*
X6098336Y7522425D01*
X6103315Y7514170D01*
X6107277Y7505357D01*
X6110173Y7496136D01*
X6111900Y7486637D01*
X6112484Y7476985D01*
X6111900Y7467333D01*
X6110173Y7457833D01*
X6107277Y7448613D01*
X6103315Y7439799D01*
X6098336Y7431544D01*
X6092367Y7423924D01*
X6085535Y7417092D01*
X6077940Y7411148D01*
X6069660Y7406144D01*
X6060846Y7402182D01*
X6051626Y7399312D01*
X6042126Y7397559D01*
X6032500Y7396975D01*
G37*
G36*
X5872479Y7142975D02*
G01*
X5862853Y7143559D01*
X5853353Y7145312D01*
X5844108Y7148182D01*
X5835319Y7152144D01*
X5827039Y7157148D01*
X5819444Y7163117D01*
X5812612Y7169924D01*
X5806643Y7177544D01*
X5801639Y7185799D01*
X5797677Y7194613D01*
X5794806Y7203833D01*
X5793079Y7213333D01*
X5792495Y7222985D01*
X5793079Y7232637D01*
X5794806Y7242136D01*
X5797677Y7251357D01*
X5801639Y7260170D01*
X5806643Y7268425D01*
X5812612Y7276045D01*
X5819444Y7282878D01*
X5827039Y7288822D01*
X5835319Y7293825D01*
X5844108Y7297788D01*
X5853353Y7300658D01*
X5862853Y7302411D01*
X5872479Y7302995D01*
X6032500Y7302995D01*
X6042126Y7302411D01*
X6051626Y7300658D01*
X6060846Y7297788D01*
X6069660Y7293825D01*
X6077940Y7288822D01*
X6085535Y7282878D01*
X6092367Y7276045D01*
X6098336Y7268425D01*
X6103315Y7260170D01*
X6107277Y7251357D01*
X6110173Y7242136D01*
X6111900Y7232637D01*
X6112484Y7222985D01*
X6111900Y7213333D01*
X6110173Y7203833D01*
X6107277Y7194613D01*
X6103315Y7185799D01*
X6098336Y7177544D01*
X6092367Y7169924D01*
X6085535Y7163117D01*
X6077940Y7157148D01*
X6069660Y7152144D01*
X6060846Y7148182D01*
X6051626Y7145312D01*
X6042126Y7143559D01*
X6032500Y7142975D01*
G37*
G36*
X5872479Y6888975D02*
G01*
X5862853Y6889559D01*
X5853353Y6891312D01*
X5844108Y6894182D01*
X5835319Y6898144D01*
X5827039Y6903148D01*
X5819444Y6909117D01*
X5812612Y6915924D01*
X5806643Y6923544D01*
X5801639Y6931799D01*
X5797677Y6940613D01*
X5794806Y6949833D01*
X5793079Y6959333D01*
X5792495Y6968985D01*
X5793079Y6978637D01*
X5794806Y6988136D01*
X5797677Y6997357D01*
X5801639Y7006170D01*
X5806643Y7014425D01*
X5812612Y7022045D01*
X5819444Y7028878D01*
X5827039Y7034822D01*
X5835319Y7039825D01*
X5844108Y7043788D01*
X5853353Y7046658D01*
X5862853Y7048411D01*
X5872479Y7048995D01*
X6032500Y7048995D01*
X6042126Y7048411D01*
X6051626Y7046658D01*
X6060846Y7043788D01*
X6069660Y7039825D01*
X6077940Y7034822D01*
X6085535Y7028878D01*
X6092367Y7022045D01*
X6098336Y7014425D01*
X6103315Y7006170D01*
X6107277Y6997357D01*
X6110173Y6988136D01*
X6111900Y6978637D01*
X6112484Y6968985D01*
X6111900Y6959333D01*
X6110173Y6949833D01*
X6107277Y6940613D01*
X6103315Y6931799D01*
X6098336Y6923544D01*
X6092367Y6915924D01*
X6085535Y6909117D01*
X6077940Y6903148D01*
X6069660Y6898144D01*
X6060846Y6894182D01*
X6051626Y6891312D01*
X6042126Y6889559D01*
X6032500Y6888975D01*
G37*
G01*
X5952490Y6714985D03*
G36*
X5872479Y6380975D02*
G01*
X5862853Y6381559D01*
X5853353Y6383312D01*
X5844108Y6386182D01*
X5835319Y6390144D01*
X5827039Y6395148D01*
X5819444Y6401117D01*
X5812612Y6407924D01*
X5806643Y6415544D01*
X5801639Y6423799D01*
X5797677Y6432613D01*
X5794806Y6441833D01*
X5793079Y6451333D01*
X5792495Y6460985D01*
X5793079Y6470637D01*
X5794806Y6480136D01*
X5797677Y6489357D01*
X5801639Y6498170D01*
X5806643Y6506425D01*
X5812612Y6514045D01*
X5819444Y6520878D01*
X5827039Y6526822D01*
X5835319Y6531825D01*
X5844108Y6535788D01*
X5853353Y6538658D01*
X5862853Y6540411D01*
X5872479Y6540995D01*
X6032500Y6540995D01*
X6042126Y6540411D01*
X6051626Y6538658D01*
X6060846Y6535788D01*
X6069660Y6531825D01*
X6077940Y6526822D01*
X6085535Y6520878D01*
X6092367Y6514045D01*
X6098336Y6506425D01*
X6103315Y6498170D01*
X6107277Y6489357D01*
X6110173Y6480136D01*
X6111900Y6470637D01*
X6112484Y6460985D01*
X6111900Y6451333D01*
X6110173Y6441833D01*
X6107277Y6432613D01*
X6103315Y6423799D01*
X6098336Y6415544D01*
X6092367Y6407924D01*
X6085535Y6401117D01*
X6077940Y6395148D01*
X6069660Y6390144D01*
X6060846Y6386182D01*
X6051626Y6383312D01*
X6042126Y6381559D01*
X6032500Y6380975D01*
G37*
G36*
X5872479Y6126975D02*
G01*
X5862853Y6127559D01*
X5853353Y6129312D01*
X5844108Y6132182D01*
X5835319Y6136144D01*
X5827039Y6141148D01*
X5819444Y6147117D01*
X5812612Y6153950D01*
X5806643Y6161544D01*
X5801639Y6169799D01*
X5797677Y6178613D01*
X5794806Y6187833D01*
X5793079Y6197333D01*
X5792495Y6206985D01*
X5793079Y6216637D01*
X5794806Y6226136D01*
X5797677Y6235357D01*
X5801639Y6244170D01*
X5806643Y6252425D01*
X5812612Y6260045D01*
X5819444Y6266878D01*
X5827039Y6272822D01*
X5835319Y6277825D01*
X5844108Y6281788D01*
X5853353Y6284658D01*
X5862853Y6286411D01*
X5872479Y6286995D01*
X6032500Y6286995D01*
X6042126Y6286411D01*
X6051626Y6284658D01*
X6060846Y6281788D01*
X6069660Y6277825D01*
X6077940Y6272822D01*
X6085535Y6266878D01*
X6092367Y6260045D01*
X6098336Y6252425D01*
X6103315Y6244170D01*
X6107277Y6235357D01*
X6110173Y6226136D01*
X6111900Y6216637D01*
X6112484Y6206985D01*
X6111900Y6197333D01*
X6110173Y6187833D01*
X6107277Y6178613D01*
X6103315Y6169799D01*
X6098336Y6161544D01*
X6092367Y6153950D01*
X6085535Y6147117D01*
X6077940Y6141148D01*
X6069660Y6136144D01*
X6060846Y6132182D01*
X6051626Y6129312D01*
X6042126Y6127559D01*
X6032500Y6126975D01*
G37*
G36*
X5872479Y5873000D02*
G01*
X5862853Y5873559D01*
X5853353Y5875312D01*
X5844108Y5878182D01*
X5835319Y5882144D01*
X5827039Y5887148D01*
X5819444Y5893117D01*
X5812612Y5899950D01*
X5806643Y5907544D01*
X5801639Y5915799D01*
X5797677Y5924613D01*
X5794806Y5933833D01*
X5793079Y5943333D01*
X5792495Y5952985D01*
X5793079Y5962637D01*
X5794806Y5972136D01*
X5797677Y5981357D01*
X5801639Y5990170D01*
X5806643Y5998425D01*
X5812612Y6006045D01*
X5819444Y6012878D01*
X5827039Y6018822D01*
X5835319Y6023825D01*
X5844108Y6027788D01*
X5853353Y6030658D01*
X5862853Y6032411D01*
X5872479Y6032995D01*
X6032500Y6032995D01*
X6042126Y6032411D01*
X6051626Y6030658D01*
X6060846Y6027788D01*
X6069660Y6023825D01*
X6077940Y6018822D01*
X6085535Y6012878D01*
X6092367Y6006045D01*
X6098336Y5998425D01*
X6103315Y5990170D01*
X6107277Y5981357D01*
X6110173Y5972136D01*
X6111900Y5962637D01*
X6112484Y5952985D01*
X6111900Y5943333D01*
X6110173Y5933833D01*
X6107277Y5924613D01*
X6103315Y5915799D01*
X6098336Y5907544D01*
X6092367Y5899950D01*
X6085535Y5893117D01*
X6077940Y5887148D01*
X6069660Y5882144D01*
X6060846Y5878182D01*
X6051626Y5875312D01*
X6042126Y5873559D01*
X6032500Y5873000D01*
G37*
G36*
X5872479Y5619000D02*
G01*
X5862853Y5619559D01*
X5853353Y5621312D01*
X5844108Y5624182D01*
X5835319Y5628144D01*
X5827039Y5633148D01*
X5819444Y5639117D01*
X5812612Y5645950D01*
X5806643Y5653544D01*
X5801639Y5661799D01*
X5797677Y5670613D01*
X5794806Y5679833D01*
X5793079Y5689333D01*
X5792495Y5698985D01*
X5793079Y5708637D01*
X5794806Y5718136D01*
X5797677Y5727357D01*
X5801639Y5736170D01*
X5806643Y5744425D01*
X5812612Y5752045D01*
X5819444Y5758878D01*
X5827039Y5764822D01*
X5835319Y5769825D01*
X5844108Y5773788D01*
X5853353Y5776658D01*
X5862853Y5778411D01*
X5872479Y5778995D01*
X6032500Y5778995D01*
X6042126Y5778411D01*
X6051626Y5776658D01*
X6060846Y5773788D01*
X6069660Y5769825D01*
X6077940Y5764822D01*
X6085535Y5758878D01*
X6092367Y5752045D01*
X6098336Y5744425D01*
X6103315Y5736170D01*
X6107277Y5727357D01*
X6110173Y5718136D01*
X6111900Y5708637D01*
X6112484Y5698985D01*
X6111900Y5689333D01*
X6110173Y5679833D01*
X6107277Y5670613D01*
X6103315Y5661799D01*
X6098336Y5653544D01*
X6092367Y5645950D01*
X6085535Y5639117D01*
X6077940Y5633148D01*
X6069660Y5628144D01*
X6060846Y5624182D01*
X6051626Y5621312D01*
X6042126Y5619559D01*
X6032500Y5619000D01*
G37*
D10*
G01*
X5952490Y5444998D03*
G36*
X5872479Y5111000D02*
G01*
X5862853Y5111584D01*
X5853353Y5113312D01*
X5844108Y5116182D01*
X5835319Y5120144D01*
X5827039Y5125148D01*
X5819444Y5131117D01*
X5812612Y5137950D01*
X5806643Y5145544D01*
X5801639Y5153799D01*
X5797677Y5162613D01*
X5794806Y5171833D01*
X5793079Y5181358D01*
X5792495Y5190985D01*
X5793079Y5200637D01*
X5794806Y5210136D01*
X5797677Y5219357D01*
X5801639Y5228170D01*
X5806643Y5236425D01*
X5812612Y5244045D01*
X5819444Y5250878D01*
X5827039Y5256822D01*
X5835319Y5261825D01*
X5844108Y5265788D01*
X5853353Y5268658D01*
X5862853Y5270411D01*
X5872479Y5270995D01*
X6032500Y5270995D01*
X6042126Y5270411D01*
X6051626Y5268658D01*
X6060846Y5265788D01*
X6069660Y5261825D01*
X6077940Y5256822D01*
X6085535Y5250878D01*
X6092367Y5244045D01*
X6098336Y5236425D01*
X6103315Y5228170D01*
X6107277Y5219357D01*
X6110173Y5210136D01*
X6111900Y5200637D01*
X6112484Y5190985D01*
X6111900Y5181358D01*
X6110173Y5171833D01*
X6107277Y5162613D01*
X6103315Y5153799D01*
X6098336Y5145544D01*
X6092367Y5137950D01*
X6085535Y5131117D01*
X6077940Y5125148D01*
X6069660Y5120144D01*
X6060846Y5116182D01*
X6051626Y5113312D01*
X6042126Y5111584D01*
X6032500Y5111000D01*
G37*
G36*
X5872479Y4857000D02*
G01*
X5862853Y4857584D01*
X5853353Y4859312D01*
X5844108Y4862182D01*
X5835319Y4866144D01*
X5827039Y4871148D01*
X5819444Y4877117D01*
X5812612Y4883950D01*
X5806643Y4891544D01*
X5801639Y4899799D01*
X5797677Y4908613D01*
X5794806Y4917833D01*
X5793079Y4927358D01*
X5792495Y4936985D01*
X5793079Y4946637D01*
X5794806Y4956136D01*
X5797677Y4965357D01*
X5801639Y4974170D01*
X5806643Y4982425D01*
X5812612Y4990045D01*
X5819444Y4996878D01*
X5827039Y5002822D01*
X5835319Y5007825D01*
X5844108Y5011788D01*
X5853353Y5014658D01*
X5862853Y5016411D01*
X5872479Y5016995D01*
X6032500Y5016995D01*
X6042126Y5016411D01*
X6051626Y5014658D01*
X6060846Y5011788D01*
X6069660Y5007825D01*
X6077940Y5002822D01*
X6085535Y4996878D01*
X6092367Y4990045D01*
X6098336Y4982425D01*
X6103315Y4974170D01*
X6107277Y4965357D01*
X6110173Y4956136D01*
X6111900Y4946637D01*
X6112484Y4936985D01*
X6111900Y4927358D01*
X6110173Y4917833D01*
X6107277Y4908613D01*
X6103315Y4899799D01*
X6098336Y4891544D01*
X6092367Y4883950D01*
X6085535Y4877117D01*
X6077940Y4871148D01*
X6069660Y4866144D01*
X6060846Y4862182D01*
X6051626Y4859312D01*
X6042126Y4857584D01*
X6032500Y4857000D01*
G37*
G36*
X3967479Y4857000D02*
G01*
X3957853Y4857584D01*
X3948353Y4859312D01*
X3939133Y4862182D01*
X3930319Y4866144D01*
X3922039Y4871148D01*
X3914444Y4877117D01*
X3907612Y4883950D01*
X3901643Y4891544D01*
X3896664Y4899799D01*
X3892702Y4908613D01*
X3889806Y4917833D01*
X3888079Y4927358D01*
X3887495Y4936985D01*
X3888079Y4946637D01*
X3889806Y4956136D01*
X3892702Y4965357D01*
X3896664Y4974170D01*
X3901643Y4982425D01*
X3907612Y4990045D01*
X3914444Y4996878D01*
X3922039Y5002822D01*
X3930319Y5007825D01*
X3939133Y5011788D01*
X3948353Y5014658D01*
X3957853Y5016411D01*
X3967479Y5016995D01*
X4127500Y5016995D01*
X4137126Y5016411D01*
X4146626Y5014658D01*
X4155871Y5011788D01*
X4164660Y5007825D01*
X4172940Y5002822D01*
X4180535Y4996878D01*
X4187367Y4990045D01*
X4193336Y4982425D01*
X4198340Y4974170D01*
X4202302Y4965357D01*
X4205173Y4956136D01*
X4206900Y4946637D01*
X4207484Y4936985D01*
X4206900Y4927358D01*
X4205173Y4917833D01*
X4202302Y4908613D01*
X4198340Y4899799D01*
X4193336Y4891544D01*
X4187367Y4883950D01*
X4180535Y4877117D01*
X4172940Y4871148D01*
X4164660Y4866144D01*
X4155871Y4862182D01*
X4146626Y4859312D01*
X4137126Y4857584D01*
X4127500Y4857000D01*
G37*
G36*
X3967479Y5111000D02*
G01*
X3957853Y5111584D01*
X3948353Y5113312D01*
X3939133Y5116182D01*
X3930319Y5120144D01*
X3922039Y5125148D01*
X3914444Y5131117D01*
X3907612Y5137950D01*
X3901643Y5145544D01*
X3896664Y5153799D01*
X3892702Y5162613D01*
X3889806Y5171833D01*
X3888079Y5181358D01*
X3887495Y5190985D01*
X3888079Y5200637D01*
X3889806Y5210136D01*
X3892702Y5219357D01*
X3896664Y5228170D01*
X3901643Y5236425D01*
X3907612Y5244045D01*
X3914444Y5250878D01*
X3922039Y5256822D01*
X3930319Y5261825D01*
X3939133Y5265788D01*
X3948353Y5268658D01*
X3957853Y5270411D01*
X3967479Y5270995D01*
X4127500Y5270995D01*
X4137126Y5270411D01*
X4146626Y5268658D01*
X4155871Y5265788D01*
X4164660Y5261825D01*
X4172940Y5256822D01*
X4180535Y5250878D01*
X4187367Y5244045D01*
X4193336Y5236425D01*
X4198340Y5228170D01*
X4202302Y5219357D01*
X4205173Y5210136D01*
X4206900Y5200637D01*
X4207484Y5190985D01*
X4206900Y5181358D01*
X4205173Y5171833D01*
X4202302Y5162613D01*
X4198340Y5153799D01*
X4193336Y5145544D01*
X4187367Y5137950D01*
X4180535Y5131117D01*
X4172940Y5125148D01*
X4164660Y5120144D01*
X4155871Y5116182D01*
X4146626Y5113312D01*
X4137126Y5111584D01*
X4127500Y5111000D01*
G37*
G01*
X4047490Y5444998D03*
G36*
X3967479Y5619000D02*
G01*
X3957853Y5619559D01*
X3948353Y5621312D01*
X3939133Y5624182D01*
X3930319Y5628144D01*
X3922039Y5633148D01*
X3914444Y5639117D01*
X3907612Y5645950D01*
X3901643Y5653544D01*
X3896664Y5661799D01*
X3892702Y5670613D01*
X3889806Y5679833D01*
X3888079Y5689333D01*
X3887495Y5698985D01*
X3888079Y5708637D01*
X3889806Y5718136D01*
X3892702Y5727357D01*
X3896664Y5736170D01*
X3901643Y5744425D01*
X3907612Y5752045D01*
X3914444Y5758878D01*
X3922039Y5764822D01*
X3930319Y5769825D01*
X3939133Y5773788D01*
X3948353Y5776658D01*
X3957853Y5778411D01*
X3967479Y5778995D01*
X4127500Y5778995D01*
X4137126Y5778411D01*
X4146626Y5776658D01*
X4155871Y5773788D01*
X4164660Y5769825D01*
X4172940Y5764822D01*
X4180535Y5758878D01*
X4187367Y5752045D01*
X4193336Y5744425D01*
X4198340Y5736170D01*
X4202302Y5727357D01*
X4205173Y5718136D01*
X4206900Y5708637D01*
X4207484Y5698985D01*
X4206900Y5689333D01*
X4205173Y5679833D01*
X4202302Y5670613D01*
X4198340Y5661799D01*
X4193336Y5653544D01*
X4187367Y5645950D01*
X4180535Y5639117D01*
X4172940Y5633148D01*
X4164660Y5628144D01*
X4155871Y5624182D01*
X4146626Y5621312D01*
X4137126Y5619559D01*
X4127500Y5619000D01*
G37*
G36*
X3967479Y5873000D02*
G01*
X3957853Y5873559D01*
X3948353Y5875312D01*
X3939133Y5878182D01*
X3930319Y5882144D01*
X3922039Y5887148D01*
X3914444Y5893117D01*
X3907612Y5899950D01*
X3901643Y5907544D01*
X3896664Y5915799D01*
X3892702Y5924613D01*
X3889806Y5933833D01*
X3888079Y5943333D01*
X3887495Y5952985D01*
X3888079Y5962637D01*
X3889806Y5972136D01*
X3892702Y5981357D01*
X3896664Y5990170D01*
X3901643Y5998425D01*
X3907612Y6006045D01*
X3914444Y6012878D01*
X3922039Y6018822D01*
X3930319Y6023825D01*
X3939133Y6027788D01*
X3948353Y6030658D01*
X3957853Y6032411D01*
X3967479Y6032995D01*
X4127500Y6032995D01*
X4137126Y6032411D01*
X4146626Y6030658D01*
X4155871Y6027788D01*
X4164660Y6023825D01*
X4172940Y6018822D01*
X4180535Y6012878D01*
X4187367Y6006045D01*
X4193336Y5998425D01*
X4198340Y5990170D01*
X4202302Y5981357D01*
X4205173Y5972136D01*
X4206900Y5962637D01*
X4207484Y5952985D01*
X4206900Y5943333D01*
X4205173Y5933833D01*
X4202302Y5924613D01*
X4198340Y5915799D01*
X4193336Y5907544D01*
X4187367Y5899950D01*
X4180535Y5893117D01*
X4172940Y5887148D01*
X4164660Y5882144D01*
X4155871Y5878182D01*
X4146626Y5875312D01*
X4137126Y5873559D01*
X4127500Y5873000D01*
G37*
G36*
X3967479Y6126975D02*
G01*
X3957853Y6127559D01*
X3948353Y6129312D01*
X3939133Y6132182D01*
X3930319Y6136144D01*
X3922039Y6141148D01*
X3914444Y6147117D01*
X3907612Y6153950D01*
X3901643Y6161544D01*
X3896664Y6169799D01*
X3892702Y6178613D01*
X3889806Y6187833D01*
X3888079Y6197333D01*
X3887495Y6206985D01*
X3888079Y6216637D01*
X3889806Y6226136D01*
X3892702Y6235357D01*
X3896664Y6244170D01*
X3901643Y6252425D01*
X3907612Y6260045D01*
X3914444Y6266878D01*
X3922039Y6272822D01*
X3930319Y6277825D01*
X3939133Y6281788D01*
X3948353Y6284658D01*
X3957853Y6286411D01*
X3967479Y6286995D01*
X4127500Y6286995D01*
X4137126Y6286411D01*
X4146626Y6284658D01*
X4155871Y6281788D01*
X4164660Y6277825D01*
X4172940Y6272822D01*
X4180535Y6266878D01*
X4187367Y6260045D01*
X4193336Y6252425D01*
X4198340Y6244170D01*
X4202302Y6235357D01*
X4205173Y6226136D01*
X4206900Y6216637D01*
X4207484Y6206985D01*
X4206900Y6197333D01*
X4205173Y6187833D01*
X4202302Y6178613D01*
X4198340Y6169799D01*
X4193336Y6161544D01*
X4187367Y6153950D01*
X4180535Y6147117D01*
X4172940Y6141148D01*
X4164660Y6136144D01*
X4155871Y6132182D01*
X4146626Y6129312D01*
X4137126Y6127559D01*
X4127500Y6126975D01*
G37*
G36*
X3967479Y6380975D02*
G01*
X3957853Y6381559D01*
X3948353Y6383312D01*
X3939133Y6386182D01*
X3930319Y6390144D01*
X3922039Y6395148D01*
X3914444Y6401117D01*
X3907612Y6407924D01*
X3901643Y6415544D01*
X3896664Y6423799D01*
X3892702Y6432613D01*
X3889806Y6441833D01*
X3888079Y6451333D01*
X3887495Y6460985D01*
X3888079Y6470637D01*
X3889806Y6480136D01*
X3892702Y6489357D01*
X3896664Y6498170D01*
X3901643Y6506425D01*
X3907612Y6514045D01*
X3914444Y6520878D01*
X3922039Y6526822D01*
X3930319Y6531825D01*
X3939133Y6535788D01*
X3948353Y6538658D01*
X3957853Y6540411D01*
X3967479Y6540995D01*
X4127500Y6540995D01*
X4137126Y6540411D01*
X4146626Y6538658D01*
X4155871Y6535788D01*
X4164660Y6531825D01*
X4172940Y6526822D01*
X4180535Y6520878D01*
X4187367Y6514045D01*
X4193336Y6506425D01*
X4198340Y6498170D01*
X4202302Y6489357D01*
X4205173Y6480136D01*
X4206900Y6470637D01*
X4207484Y6460985D01*
X4206900Y6451333D01*
X4205173Y6441833D01*
X4202302Y6432613D01*
X4198340Y6423799D01*
X4193336Y6415544D01*
X4187367Y6407924D01*
X4180535Y6401117D01*
X4172940Y6395148D01*
X4164660Y6390144D01*
X4155871Y6386182D01*
X4146626Y6383312D01*
X4137126Y6381559D01*
X4127500Y6380975D01*
G37*
D11*
G01*
X4047490Y6714985D03*
G36*
X3967479Y6888975D02*
G01*
X3957853Y6889559D01*
X3948353Y6891312D01*
X3939133Y6894182D01*
X3930319Y6898144D01*
X3922039Y6903148D01*
X3914444Y6909117D01*
X3907612Y6915924D01*
X3901643Y6923544D01*
X3896664Y6931799D01*
X3892702Y6940613D01*
X3889806Y6949833D01*
X3888079Y6959333D01*
X3887495Y6968985D01*
X3888079Y6978637D01*
X3889806Y6988136D01*
X3892702Y6997357D01*
X3896664Y7006170D01*
X3901643Y7014425D01*
X3907612Y7022045D01*
X3914444Y7028878D01*
X3922039Y7034822D01*
X3930319Y7039825D01*
X3939133Y7043788D01*
X3948353Y7046658D01*
X3957853Y7048411D01*
X3967479Y7048995D01*
X4127500Y7048995D01*
X4137126Y7048411D01*
X4146626Y7046658D01*
X4155871Y7043788D01*
X4164660Y7039825D01*
X4172940Y7034822D01*
X4180535Y7028878D01*
X4187367Y7022045D01*
X4193336Y7014425D01*
X4198340Y7006170D01*
X4202302Y6997357D01*
X4205173Y6988136D01*
X4206900Y6978637D01*
X4207484Y6968985D01*
X4206900Y6959333D01*
X4205173Y6949833D01*
X4202302Y6940613D01*
X4198340Y6931799D01*
X4193336Y6923544D01*
X4187367Y6915924D01*
X4180535Y6909117D01*
X4172940Y6903148D01*
X4164660Y6898144D01*
X4155871Y6894182D01*
X4146626Y6891312D01*
X4137126Y6889559D01*
X4127500Y6888975D01*
G37*
G36*
X3967479Y7142975D02*
G01*
X3957853Y7143559D01*
X3948353Y7145312D01*
X3939133Y7148182D01*
X3930319Y7152144D01*
X3922039Y7157148D01*
X3914444Y7163117D01*
X3907612Y7169924D01*
X3901643Y7177544D01*
X3896664Y7185799D01*
X3892702Y7194613D01*
X3889806Y7203833D01*
X3888079Y7213333D01*
X3887495Y7222985D01*
X3888079Y7232637D01*
X3889806Y7242136D01*
X3892702Y7251357D01*
X3896664Y7260170D01*
X3901643Y7268425D01*
X3907612Y7276045D01*
X3914444Y7282878D01*
X3922039Y7288822D01*
X3930319Y7293825D01*
X3939133Y7297788D01*
X3948353Y7300658D01*
X3957853Y7302411D01*
X3967479Y7302995D01*
X4127500Y7302995D01*
X4137126Y7302411D01*
X4146626Y7300658D01*
X4155871Y7297788D01*
X4164660Y7293825D01*
X4172940Y7288822D01*
X4180535Y7282878D01*
X4187367Y7276045D01*
X4193336Y7268425D01*
X4198340Y7260170D01*
X4202302Y7251357D01*
X4205173Y7242136D01*
X4206900Y7232637D01*
X4207484Y7222985D01*
X4206900Y7213333D01*
X4205173Y7203833D01*
X4202302Y7194613D01*
X4198340Y7185799D01*
X4193336Y7177544D01*
X4187367Y7169924D01*
X4180535Y7163117D01*
X4172940Y7157148D01*
X4164660Y7152144D01*
X4155871Y7148182D01*
X4146626Y7145312D01*
X4137126Y7143559D01*
X4127500Y7142975D01*
G37*
G36*
X3967479Y7396975D02*
G01*
X3957853Y7397559D01*
X3948353Y7399312D01*
X3939133Y7402182D01*
X3930319Y7406144D01*
X3922039Y7411148D01*
X3914444Y7417092D01*
X3907612Y7423924D01*
X3901643Y7431544D01*
X3896664Y7439799D01*
X3892702Y7448613D01*
X3889806Y7457833D01*
X3888079Y7467333D01*
X3887495Y7476985D01*
X3888079Y7486637D01*
X3889806Y7496136D01*
X3892702Y7505357D01*
X3896664Y7514170D01*
X3901643Y7522425D01*
X3907612Y7530045D01*
X3914444Y7536853D01*
X3922039Y7542822D01*
X3930319Y7547825D01*
X3939133Y7551788D01*
X3948353Y7554658D01*
X3957853Y7556411D01*
X3967479Y7556995D01*
X4127500Y7556995D01*
X4137126Y7556411D01*
X4146626Y7554658D01*
X4155871Y7551788D01*
X4164660Y7547825D01*
X4172940Y7542822D01*
X4180535Y7536853D01*
X4187367Y7530045D01*
X4193336Y7522425D01*
X4198340Y7514170D01*
X4202302Y7505357D01*
X4205173Y7496136D01*
X4206900Y7486637D01*
X4207484Y7476985D01*
X4206900Y7467333D01*
X4205173Y7457833D01*
X4202302Y7448613D01*
X4198340Y7439799D01*
X4193336Y7431544D01*
X4187367Y7423924D01*
X4180535Y7417092D01*
X4172940Y7411148D01*
X4164660Y7406144D01*
X4155871Y7402182D01*
X4146626Y7399312D01*
X4137126Y7397559D01*
X4127500Y7396975D01*
G37*
G36*
X3967479Y7650975D02*
G01*
X3957853Y7651559D01*
X3948353Y7653312D01*
X3939133Y7656182D01*
X3930319Y7660144D01*
X3922039Y7665148D01*
X3914444Y7671092D01*
X3907612Y7677924D01*
X3901643Y7685544D01*
X3896664Y7693799D01*
X3892702Y7702613D01*
X3889806Y7711833D01*
X3888079Y7721333D01*
X3887495Y7730985D01*
X3888079Y7740637D01*
X3889806Y7750136D01*
X3892702Y7759357D01*
X3896664Y7768170D01*
X3901643Y7776425D01*
X3907612Y7784045D01*
X3914444Y7790853D01*
X3922039Y7796822D01*
X3930319Y7801825D01*
X3939133Y7805788D01*
X3948353Y7808658D01*
X3957853Y7810411D01*
X3967479Y7810995D01*
X4127500Y7810995D01*
X4137126Y7810411D01*
X4146626Y7808658D01*
X4155871Y7805788D01*
X4164660Y7801825D01*
X4172940Y7796822D01*
X4180535Y7790853D01*
X4187367Y7784045D01*
X4193336Y7776425D01*
X4198340Y7768170D01*
X4202302Y7759357D01*
X4205173Y7750136D01*
X4206900Y7740637D01*
X4207484Y7730985D01*
X4206900Y7721333D01*
X4205173Y7711833D01*
X4202302Y7702613D01*
X4198340Y7693799D01*
X4193336Y7685544D01*
X4187367Y7677924D01*
X4180535Y7671092D01*
X4172940Y7665148D01*
X4164660Y7660144D01*
X4155871Y7656182D01*
X4146626Y7653312D01*
X4137126Y7651559D01*
X4127500Y7650975D01*
G37*
G01*
X4047490Y7984985D03*
G36*
X3967479Y8158975D02*
G01*
X3957853Y8159559D01*
X3948353Y8161312D01*
X3939133Y8164182D01*
X3930319Y8168144D01*
X3922039Y8173148D01*
X3914444Y8179092D01*
X3907612Y8185924D01*
X3901643Y8193544D01*
X3896664Y8201799D01*
X3892702Y8210613D01*
X3889806Y8219833D01*
X3888079Y8229333D01*
X3887495Y8238985D01*
X3888079Y8248637D01*
X3889806Y8258136D01*
X3892702Y8267357D01*
X3896664Y8276170D01*
X3901643Y8284425D01*
X3907612Y8292045D01*
X3914444Y8298853D01*
X3922039Y8304822D01*
X3930319Y8309825D01*
X3939133Y8313788D01*
X3948353Y8316658D01*
X3957853Y8318411D01*
X3967479Y8318995D01*
X4127500Y8318995D01*
X4137126Y8318411D01*
X4146626Y8316658D01*
X4155871Y8313788D01*
X4164660Y8309825D01*
X4172940Y8304822D01*
X4180535Y8298853D01*
X4187367Y8292045D01*
X4193336Y8284425D01*
X4198340Y8276170D01*
X4202302Y8267357D01*
X4205173Y8258136D01*
X4206900Y8248637D01*
X4207484Y8238985D01*
X4206900Y8229333D01*
X4205173Y8219833D01*
X4202302Y8210613D01*
X4198340Y8201799D01*
X4193336Y8193544D01*
X4187367Y8185924D01*
X4180535Y8179092D01*
X4172940Y8173148D01*
X4164660Y8168144D01*
X4155871Y8164182D01*
X4146626Y8161312D01*
X4137126Y8159559D01*
X4127500Y8158975D01*
G37*
G36*
X3967479Y8412975D02*
G01*
X3957853Y8413559D01*
X3948353Y8415312D01*
X3939133Y8418182D01*
X3930319Y8422144D01*
X3922039Y8427148D01*
X3914444Y8433092D01*
X3907612Y8439924D01*
X3901643Y8447544D01*
X3896664Y8455799D01*
X3892702Y8464613D01*
X3889806Y8473833D01*
X3888079Y8483333D01*
X3887495Y8492985D01*
X3888079Y8502637D01*
X3889806Y8512136D01*
X3892702Y8521357D01*
X3896664Y8530170D01*
X3901643Y8538425D01*
X3907612Y8546020D01*
X3914444Y8552853D01*
X3922039Y8558822D01*
X3930319Y8563825D01*
X3939133Y8567788D01*
X3948353Y8570658D01*
X3957853Y8572411D01*
X3967479Y8572995D01*
X4127500Y8572995D01*
X4137126Y8572411D01*
X4146626Y8570658D01*
X4155871Y8567788D01*
X4164660Y8563825D01*
X4172940Y8558822D01*
X4180535Y8552853D01*
X4187367Y8546020D01*
X4193336Y8538425D01*
X4198340Y8530170D01*
X4202302Y8521357D01*
X4205173Y8512136D01*
X4206900Y8502637D01*
X4207484Y8492985D01*
X4206900Y8483333D01*
X4205173Y8473833D01*
X4202302Y8464613D01*
X4198340Y8455799D01*
X4193336Y8447544D01*
X4187367Y8439924D01*
X4180535Y8433092D01*
X4172940Y8427148D01*
X4164660Y8422144D01*
X4155871Y8418182D01*
X4146626Y8415312D01*
X4137126Y8413559D01*
X4127500Y8412975D01*
G37*
G36*
X3967479Y8666975D02*
G01*
X3957853Y8667559D01*
X3948353Y8669312D01*
X3939133Y8672182D01*
X3930319Y8676144D01*
X3922039Y8681148D01*
X3914444Y8687092D01*
X3907612Y8693924D01*
X3901643Y8701544D01*
X3896664Y8709799D01*
X3892702Y8718613D01*
X3889806Y8727833D01*
X3888079Y8737333D01*
X3887495Y8746985D01*
X3888079Y8756637D01*
X3889806Y8766136D01*
X3892702Y8775357D01*
X3896664Y8784170D01*
X3901643Y8792425D01*
X3907612Y8800020D01*
X3914444Y8806853D01*
X3922039Y8812822D01*
X3930319Y8817825D01*
X3939133Y8821788D01*
X3948353Y8824658D01*
X3957853Y8826411D01*
X3967479Y8826969D01*
X4127500Y8826969D01*
X4137126Y8826411D01*
X4146626Y8824658D01*
X4155871Y8821788D01*
X4164660Y8817825D01*
X4172940Y8812822D01*
X4180535Y8806853D01*
X4187367Y8800020D01*
X4193336Y8792425D01*
X4198340Y8784170D01*
X4202302Y8775357D01*
X4205173Y8766136D01*
X4206900Y8756637D01*
X4207484Y8746985D01*
X4206900Y8737333D01*
X4205173Y8727833D01*
X4202302Y8718613D01*
X4198340Y8709799D01*
X4193336Y8701544D01*
X4187367Y8693924D01*
X4180535Y8687092D01*
X4172940Y8681148D01*
X4164660Y8676144D01*
X4155871Y8672182D01*
X4146626Y8669312D01*
X4137126Y8667559D01*
X4127500Y8666975D01*
G37*
G36*
X3967479Y8920975D02*
G01*
X3957853Y8921559D01*
X3948353Y8923312D01*
X3939133Y8926182D01*
X3930319Y8930144D01*
X3922039Y8935148D01*
X3914444Y8941092D01*
X3907612Y8947924D01*
X3901643Y8955544D01*
X3896664Y8963799D01*
X3892702Y8972613D01*
X3889806Y8981833D01*
X3888079Y8991333D01*
X3887495Y9000985D01*
X3888079Y9010637D01*
X3889806Y9020136D01*
X3892702Y9029357D01*
X3896664Y9038170D01*
X3901643Y9046425D01*
X3907612Y9054020D01*
X3914444Y9060853D01*
X3922039Y9066822D01*
X3930319Y9071825D01*
X3939133Y9075788D01*
X3948353Y9078658D01*
X3957853Y9080411D01*
X3967479Y9080969D01*
X4127500Y9080969D01*
X4137126Y9080411D01*
X4146626Y9078658D01*
X4155871Y9075788D01*
X4164660Y9071825D01*
X4172940Y9066822D01*
X4180535Y9060853D01*
X4187367Y9054020D01*
X4193336Y9046425D01*
X4198340Y9038170D01*
X4202302Y9029357D01*
X4205173Y9020136D01*
X4206900Y9010637D01*
X4207484Y9000985D01*
X4206900Y8991333D01*
X4205173Y8981833D01*
X4202302Y8972613D01*
X4198340Y8963799D01*
X4193336Y8955544D01*
X4187367Y8947924D01*
X4180535Y8941092D01*
X4172940Y8935148D01*
X4164660Y8930144D01*
X4155871Y8926182D01*
X4146626Y8923312D01*
X4137126Y8921559D01*
X4127500Y8920975D01*
G37*
D10*
G01*
X4047490Y9254972D03*
G36*
X3967479Y9428975D02*
G01*
X3957853Y9429559D01*
X3948353Y9431312D01*
X3939133Y9434182D01*
X3930319Y9438144D01*
X3922039Y9443148D01*
X3914444Y9449092D01*
X3907612Y9455924D01*
X3901643Y9463544D01*
X3896664Y9471799D01*
X3892702Y9480613D01*
X3889806Y9489833D01*
X3888079Y9499333D01*
X3887495Y9508985D01*
X3888079Y9518611D01*
X3889806Y9528136D01*
X3892702Y9537357D01*
X3896664Y9546170D01*
X3901643Y9554425D01*
X3907612Y9562020D01*
X3914444Y9568853D01*
X3922039Y9574822D01*
X3930319Y9579825D01*
X3939133Y9583788D01*
X3948353Y9586658D01*
X3957853Y9588385D01*
X3967479Y9588969D01*
X4127500Y9588969D01*
X4137126Y9588385D01*
X4146626Y9586658D01*
X4155871Y9583788D01*
X4164660Y9579825D01*
X4172940Y9574822D01*
X4180535Y9568853D01*
X4187367Y9562020D01*
X4193336Y9554425D01*
X4198340Y9546170D01*
X4202302Y9537357D01*
X4205173Y9528136D01*
X4206900Y9518611D01*
X4207484Y9508985D01*
X4206900Y9499333D01*
X4205173Y9489833D01*
X4202302Y9480613D01*
X4198340Y9471799D01*
X4193336Y9463544D01*
X4187367Y9455924D01*
X4180535Y9449092D01*
X4172940Y9443148D01*
X4164660Y9438144D01*
X4155871Y9434182D01*
X4146626Y9431312D01*
X4137126Y9429559D01*
X4127500Y9428975D01*
G37*
G36*
X3967479Y9682975D02*
G01*
X3957853Y9683559D01*
X3948353Y9685312D01*
X3939133Y9688182D01*
X3930319Y9692144D01*
X3922039Y9697148D01*
X3914444Y9703092D01*
X3907612Y9709924D01*
X3901643Y9717544D01*
X3896664Y9725799D01*
X3892702Y9734613D01*
X3889806Y9743833D01*
X3888079Y9753333D01*
X3887495Y9762985D01*
X3888079Y9772611D01*
X3889806Y9782136D01*
X3892702Y9791357D01*
X3896664Y9800170D01*
X3901643Y9808425D01*
X3907612Y9816020D01*
X3914444Y9822853D01*
X3922039Y9828822D01*
X3930319Y9833825D01*
X3939133Y9837788D01*
X3948353Y9840658D01*
X3957853Y9842385D01*
X3967479Y9842969D01*
X4127500Y9842969D01*
X4137126Y9842385D01*
X4146626Y9840658D01*
X4155871Y9837788D01*
X4164660Y9833825D01*
X4172940Y9828822D01*
X4180535Y9822853D01*
X4187367Y9816020D01*
X4193336Y9808425D01*
X4198340Y9800170D01*
X4202302Y9791357D01*
X4205173Y9782136D01*
X4206900Y9772611D01*
X4207484Y9762985D01*
X4206900Y9753333D01*
X4205173Y9743833D01*
X4202302Y9734613D01*
X4198340Y9725799D01*
X4193336Y9717544D01*
X4187367Y9709924D01*
X4180535Y9703092D01*
X4172940Y9697148D01*
X4164660Y9692144D01*
X4155871Y9688182D01*
X4146626Y9685312D01*
X4137126Y9683559D01*
X4127500Y9682975D01*
G37*
G36*
X4919979Y5016995D02*
G01*
X4920564Y5026621D01*
X4922316Y5036146D01*
X4925186Y5045367D01*
X4929149Y5054155D01*
X4934153Y5062435D01*
X4940096Y5070030D01*
X4946929Y5076863D01*
X4954549Y5082832D01*
X4962804Y5087835D01*
X4971618Y5091798D01*
X4980838Y5094668D01*
X4990338Y5096395D01*
X4999990Y5096979D01*
X5009641Y5096395D01*
X5019141Y5094668D01*
X5028361Y5091798D01*
X5037175Y5087835D01*
X5045430Y5082832D01*
X5053050Y5076863D01*
X5059883Y5070030D01*
X5065826Y5062435D01*
X5070830Y5054155D01*
X5074793Y5045367D01*
X5077663Y5036146D01*
X5079415Y5026621D01*
X5080000Y5016995D01*
X5080000Y4857000D01*
X5079415Y4847348D01*
X5077663Y4837849D01*
X5074793Y4828628D01*
X5070830Y4819815D01*
X5065826Y4811534D01*
X5059883Y4803940D01*
X5053050Y4797107D01*
X5045430Y4791163D01*
X5037175Y4786160D01*
X5028361Y4782197D01*
X5019141Y4779327D01*
X5009641Y4777574D01*
X4999990Y4776990D01*
X4990338Y4777574D01*
X4980838Y4779327D01*
X4971618Y4782197D01*
X4962804Y4786160D01*
X4954549Y4791163D01*
X4946929Y4797107D01*
X4940096Y4803940D01*
X4934153Y4811534D01*
X4929149Y4819815D01*
X4925186Y4828628D01*
X4922316Y4837849D01*
X4920564Y4847348D01*
X4919979Y4857000D01*
G37*
G36*
X4665979Y5016995D02*
G01*
X4666564Y5026621D01*
X4668316Y5036146D01*
X4671186Y5045367D01*
X4675149Y5054155D01*
X4680153Y5062435D01*
X4686122Y5070030D01*
X4692929Y5076863D01*
X4700549Y5082832D01*
X4708804Y5087835D01*
X4717618Y5091798D01*
X4726838Y5094668D01*
X4736338Y5096395D01*
X4745990Y5096979D01*
X4755641Y5096395D01*
X4765141Y5094668D01*
X4774361Y5091798D01*
X4783175Y5087835D01*
X4791430Y5082832D01*
X4799050Y5076863D01*
X4805883Y5070030D01*
X4811826Y5062435D01*
X4816830Y5054155D01*
X4820793Y5045367D01*
X4823663Y5036146D01*
X4825415Y5026621D01*
X4826000Y5016995D01*
X4826000Y4857000D01*
X4825415Y4847348D01*
X4823663Y4837849D01*
X4820793Y4828628D01*
X4816830Y4819815D01*
X4811826Y4811534D01*
X4805883Y4803940D01*
X4799050Y4797107D01*
X4791430Y4791163D01*
X4783175Y4786160D01*
X4774361Y4782197D01*
X4765141Y4779327D01*
X4755641Y4777574D01*
X4745990Y4776990D01*
X4736338Y4777574D01*
X4726838Y4779327D01*
X4717618Y4782197D01*
X4708804Y4786160D01*
X4700549Y4791163D01*
X4692929Y4797107D01*
X4686122Y4803940D01*
X4680153Y4811534D01*
X4675149Y4819815D01*
X4671186Y4828628D01*
X4668316Y4837849D01*
X4666564Y4847348D01*
X4665979Y4857000D01*
G37*
G36*
X5173979Y5016995D02*
G01*
X5174564Y5026621D01*
X5176316Y5036146D01*
X5179186Y5045367D01*
X5183149Y5054155D01*
X5188153Y5062435D01*
X5194096Y5070030D01*
X5200929Y5076863D01*
X5208549Y5082832D01*
X5216804Y5087835D01*
X5225618Y5091798D01*
X5234838Y5094668D01*
X5244338Y5096395D01*
X5253990Y5096979D01*
X5263641Y5096395D01*
X5273141Y5094668D01*
X5282361Y5091798D01*
X5291175Y5087835D01*
X5299430Y5082832D01*
X5307050Y5076863D01*
X5313857Y5070030D01*
X5319826Y5062435D01*
X5324830Y5054155D01*
X5328793Y5045367D01*
X5331663Y5036146D01*
X5333415Y5026621D01*
X5334000Y5016995D01*
X5334000Y4857000D01*
X5333415Y4847348D01*
X5331663Y4837849D01*
X5328793Y4828628D01*
X5324830Y4819815D01*
X5319826Y4811534D01*
X5313857Y4803940D01*
X5307050Y4797107D01*
X5299430Y4791163D01*
X5291175Y4786160D01*
X5282361Y4782197D01*
X5273141Y4779327D01*
X5263641Y4777574D01*
X5253990Y4776990D01*
X5244338Y4777574D01*
X5234838Y4779327D01*
X5225618Y4782197D01*
X5216804Y4786160D01*
X5208549Y4791163D01*
X5200929Y4797107D01*
X5194096Y4803940D01*
X5188153Y4811534D01*
X5183149Y4819815D01*
X5179186Y4828628D01*
X5176316Y4837849D01*
X5174564Y4847348D01*
X5173979Y4857000D01*
G37*
M02*
