M48
METRIC,LZ,000.000
;FILE_FORMAT=3:3
;TYPE=PLATED
;Layer: PTH_Through_Via
;EasyEDA v6.5.20, 2023-09-04 03:46:31
;a67cddfb3fce44daa9051d46cbbcc19f,10
;Gerber Generator version 0.2
;Holesize 1 = 0.305 mm
T01C0.305
;Holesize 2 = 0.306 mm
T02C0.306
%
G05
G90
T01
X034000Y096000
X034000Y036270
X036000Y094000
X036000Y033730
X067000Y097500
X068000Y096750
X068750Y096000
X063000Y087470
X065000Y086000
X064135Y086864
T02
X001072Y088928
X001072Y083928
X001072Y078928
X001072Y073928
X001072Y068928
X001072Y063928
X001072Y058928
X001072Y053928
X001072Y048928
X001072Y043928
X001072Y028928
X001072Y023928
X001072Y018928
X001072Y013928
X006072Y088928
X006072Y083928
X006072Y078928
X006072Y073928
X006072Y068928
X006072Y063928
X006072Y058928
X006072Y053928
X006072Y048928
X006072Y043928
X006072Y038928
X006072Y033928
X006072Y028928
X006072Y023928
X006072Y018928
X006072Y013928
X011072Y098928
X011072Y093928
X011072Y088928
X011072Y083928
X011072Y078928
X011072Y073928
X011072Y068928
X011072Y063928
X011072Y058928
X011072Y053928
X011072Y048928
X011072Y043928
X011072Y028928
X011072Y023928
X011072Y018928
X011072Y013928
X011072Y008928
X011072Y003928
X016072Y098928
X016072Y093928
X016072Y088928
X016072Y083928
X016072Y078928
X016072Y073928
X016072Y068928
X016072Y063928
X016072Y058928
X016072Y053928
X016072Y048928
X016072Y043928
X016072Y028928
X016072Y023928
X016072Y018928
X016072Y013928
X016072Y008928
X016072Y003928
X021072Y098928
X021072Y093928
X021072Y088928
X021072Y063928
X021072Y058928
X021072Y053928
X021072Y048928
X021072Y043928
X021072Y028928
X021072Y023928
X021072Y018928
X021072Y013928
X021072Y008928
X021072Y003928
X026072Y098928
X026072Y093928
X026072Y063928
X026072Y058928
X026072Y053928
X026072Y048928
X026072Y043928
X026072Y028928
X026072Y023928
X026072Y018928
X026072Y013928
X026072Y008928
X026072Y003928
X031072Y098928
X031072Y083928
X031072Y078928
X031072Y073928
X031072Y068928
X031072Y063928
X031072Y058928
X031072Y053928
X031072Y048928
X031072Y043928
X031072Y028928
X031072Y023928
X031072Y018928
X031072Y013928
X031072Y008928
X031072Y003928
X036072Y098928
X036072Y028928
X036072Y023928
X041072Y043928
X041072Y028928
X041072Y023928
X046072Y043928
X046072Y028928
X046072Y023928
X051072Y043928
X051072Y028928
X051072Y023928
X056072Y043928
X056072Y038928
X056072Y028928
X056072Y023928
X056072Y013928
X061072Y043928
X061072Y028928
X061072Y023928
X061072Y013928
X066072Y093928
X066072Y088928
X066072Y083928
X066072Y078928
X066072Y073928
X066072Y068928
X066072Y063928
X066072Y058928
X066072Y053928
X066072Y048928
X066072Y043928
X066072Y028928
X066072Y023928
X066072Y013928
X071072Y088928
X071072Y083928
X071072Y078928
X071072Y073928
X071072Y068928
X071072Y063928
X071072Y058928
X071072Y053928
X071072Y048928
X071072Y043928
X071072Y028928
X071072Y023928
X071072Y013928
X071072Y008928
X071072Y003928
X076072Y093928
X076072Y083928
X076072Y073928
X076072Y068928
X076072Y063928
X076072Y058928
X076072Y053928
X076072Y048928
X076072Y043928
X076072Y028928
X076072Y023928
X076072Y013928
X076072Y008928
X076072Y003928
X081072Y098928
X081072Y093928
X081072Y088928
X081072Y068928
X081072Y063928
X081072Y058928
X081072Y053928
X081072Y048928
X081072Y043928
X081072Y028928
X081072Y023928
X081072Y018928
X081072Y013928
X081072Y008928
X081072Y003928
X086072Y098928
X086072Y093928
X086072Y088928
X086072Y068928
X086072Y063928
X086072Y058928
X086072Y053928
X086072Y048928
X086072Y043928
X086072Y028928
X086072Y023928
X086072Y018928
X086072Y013928
X086072Y008928
X086072Y003928
X091072Y088928
X091072Y068928
X091072Y063928
X091072Y058928
X091072Y053928
X091072Y048928
X091072Y043928
X091072Y028928
X091072Y023928
X091072Y018928
X091072Y013928
X096072Y088928
X096072Y073928
X096072Y068928
X096072Y063928
X096072Y058928
X096072Y053928
X096072Y048928
X096072Y043928
X096072Y028928
X096072Y023928
X096072Y018928
X096072Y013928
M30
